<?xml version="1.0" encoding="UTF-8" standalone="no"?>
<svg
   xmlns:dc="http://purl.org/dc/elements/1.1/"
   xmlns:cc="http://creativecommons.org/ns#"
   xmlns:rdf="http://www.w3.org/1999/02/22-rdf-syntax-ns#"
   xmlns:svg="http://www.w3.org/2000/svg"
   xmlns="http://www.w3.org/2000/svg"
   viewBox="0 0 546.1333 472.38666"
   height="472.38666"
   width="546.1333"
   xml:space="preserve"
   id="svg2"
   version="1.1"><metadata
     id="metadata8"><rdf:RDF><cc:Work
         rdf:about=""><dc:format>image/svg+xml</dc:format><dc:type
           rdf:resource="http://purl.org/dc/dcmitype/StillImage" /></cc:Work></rdf:RDF></metadata><defs
     id="defs6" /><g
     transform="matrix(1.3333333,0,0,-1.3333333,0,472.38667)"
     id="g10"><g
       transform="scale(0.1)"
       id="g12"><path
         id="path14"
         style="fill:#231f20;fill-opacity:1;fill-rule:nonzero;stroke:none"
         d="m 2729.77,160 v 476.801 c 0,114.211 -92.89,207.109 -207.11,207.109 h -949.3 c -114.22,0 -207.15,-92.898 -207.15,-207.109 V 160 H 602.809 v 1528.98 c 0,43.25 35.199,78.44 78.441,78.44 h 1534.77 c 44.18,0 80,35.82 80,80 0,44.18 -35.82,80 -80,80 H 1023.98 v 61.37 c 0,10.27 8.4,18.67 18.68,18.67 h 1970.7 c 10.27,0 18.63,-8.4 18.63,-18.67 v -61.37 h -175.97 c -44.22,0 -80,-35.82 -80,-80 0,-44.18 35.78,-80 80,-80 h 511.83 c 43.28,0 78.48,-35.19 78.48,-78.44 V 160 Z m -601.76,0 v 523.91 h 394.65 c 25.97,0 47.11,-21.14 47.11,-47.109 V 160 Z m -601.8,0 v 476.801 c 0,25.969 21.17,47.109 47.15,47.109 h 394.65 V 160 Z M 1361.8,3294.84 c 0,48.56 39.53,88.05 88.08,88.05 h 1149.34 c 48.55,0 88.05,-39.49 88.05,-88.05 V 2167.46 H 1361.8 Z M 4016.02,160 h -409.69 v 1528.98 c 0,131.49 -106.99,238.44 -238.48,238.44 h -175.86 v 61.37 c 0,98.51 -80.15,178.67 -178.63,178.67 h -166.09 v 1127.38 c 0,136.76 -111.25,248.05 -248.05,248.05 H 1449.88 c -136.79,0 -248.08,-111.29 -248.08,-248.05 V 2167.46 h -159.14 c -98.519,0 -178.68,-80.16 -178.68,-178.67 v -61.37 H 681.25 c -131.48,0 -238.441,-106.95 -238.441,-238.44 l 0,-1528.98 H 80 C 35.8203,160 0,124.219 0,80 0,35.8203 35.8203,0 80,0 h 3936.02 c 44.18,0 80,35.8203 80,80 0,44.219 -35.82,80 -80,80 v 0" /><path
         id="path16"
         style="fill:#231f20;fill-opacity:1;fill-rule:nonzero;stroke:none"
         d="M 1311.99,1167.46 H 976.02 v 240 h 335.97 z m 28.01,400 H 948.008 c -72.778,0 -131.988,-59.22 -131.988,-131.99 v -296.02 c 0,-72.77 59.21,-131.99 131.988,-131.99 H 1340 c 72.77,0 131.99,59.22 131.99,131.99 v 296.02 c 0,72.77 -59.22,131.99 -131.99,131.99 v 0" /><path
         id="path18"
         style="fill:#231f20;fill-opacity:1;fill-rule:nonzero;stroke:none"
         d="M 2216.02,1167.46 H 1880 v 240 h 336.02 z m 27.96,400 h -391.99 c -72.77,0 -131.99,-59.22 -131.99,-131.99 v -296.02 c 0,-72.77 59.22,-131.99 131.99,-131.99 h 391.99 c 72.82,0 132.04,59.22 132.04,131.99 v 296.02 c 0,72.77 -59.22,131.99 -132.04,131.99 v 0" /><path
         id="path20"
         style="fill:#231f20;fill-opacity:1;fill-rule:nonzero;stroke:none"
         d="m 3120,1167.46 h -336.02 v 240 H 3120 Z m 28.01,400 h -391.99 c -72.82,0 -132.04,-59.22 -132.04,-131.99 v -296.02 c 0,-72.77 59.22,-131.99 132.04,-131.99 h 391.99 c 72.77,0 131.99,59.22 131.99,131.99 v 296.02 c 0,72.77 -59.22,131.99 -131.99,131.99 v 0" /><path
         id="path22"
         style="fill:#231f20;fill-opacity:1;fill-rule:nonzero;stroke:none"
         d="m 2536.17,1927.42 h -0.15 c -44.22,0 -79.93,-35.82 -79.93,-80 0,-44.18 35.94,-80 80.12,-80 44.18,0 80,35.82 80,80 0,44.18 -35.82,80 -80.04,80 v 0" /></g></g></svg>