<?xml version="1.0" encoding="utf-8"?>
<!-- Generator: Adobe Illustrator 22.1.0, SVG Export Plug-In . SVG Version: 6.00 Build 0)  -->
<svg version="1.1" id="Layer_1" xmlns="http://www.w3.org/2000/svg" xmlns:xlink="http://www.w3.org/1999/xlink" x="0px" y="0px"
	 viewBox="0 0 511 512" style="enable-background:new 0 0 511 512;" xml:space="preserve">
<path d="M449.8,156.5h-13.1v-16.4c0-11-8.9-19.9-19.9-19.9H400V58.8c0-14.9-12.1-27-27-27h-16.4v-5.7c0-14.4-11.7-26.1-26.1-26.1
	H181.1C166.7,0,155,11.7,155,26.1v5.7h-16.4c-14.9,0-27,12.1-27,27v61.4H95.4c-11,0-19.9,8.9-19.9,19.9v16.4H61.8
	c-27.2,0-49.3,22.1-49.3,49.3V453c0,24.5,19.9,44.4,44.4,44.4h6.7C67,506,75.4,512,85.1,512h20.2c9.7,0,18.1-6,21.5-14.6h258.2
	c3.4,8.5,11.7,14.6,21.5,14.6h20.2c9.7,0,18.1-6,21.5-14.6h6.7c24.5,0,44.4-19.9,44.4-44.4V205.8C499.1,178.6,477,156.5,449.8,156.5
	z M416.8,156.5h-53.5v-16.3h53.5V156.5z M175,26.1c0-3.4,2.7-6.1,6.1-6.1h149.4c3.4,0,6.1,2.7,6.1,6.1v30.7c0,3.4-2.8,6.1-6.1,6.1
	H181.1c-3.4,0-6.1-2.8-6.1-6.1V26.1z M131.6,58.8c0-3.8,3.1-7,7-7H155v4.9c0,14.4,11.7,26.1,26.1,26.1h149.4
	c14.4,0,26.1-11.7,26.1-26.1v-4.9H373c3.8,0,7,3.1,7,7v61.4h-16.9c-11,0-19.9,8.9-19.9,19.9v16.4H169.1v-16.4
	c0-11-8.9-19.9-19.9-19.9h-17.6V58.8z M95.5,140.2h53.5v16.3H95.5V140.2z M108.4,488.9c0,1.7-1.4,3.1-3.1,3.1H85.1
	c-1.7,0-3.1-1.4-3.1-3.1v-55.6h26.4L108.4,488.9L108.4,488.9z M429.6,488.9c0,1.7-1.4,3.1-3.1,3.1h-20.2c-1.7,0-3.1-1.4-3.1-3.1
	v-55.6h26.4L429.6,488.9L429.6,488.9z M479.1,453c0,13.5-11,24.4-24.4,24.4h-5.1v-47.3c0-9.3-7.6-16.9-16.9-16.9h-32.6
	c-9.3,0-16.9,7.6-16.9,16.9v47.3H128.4v-47.3c0-9.3-7.6-16.9-16.9-16.9H78.8c-9.3,0-16.9,7.6-16.9,16.9v47.3h-5.1
	c-13.5,0-24.4-11-24.4-24.4V205.8c0-16.1,13.1-29.3,29.3-29.3h23.6c0,0,0.1,0,0.1,0h73.5c0,0,0.1,0,0.1,0h194c0,0,0.1,0,0.1,0h73.5
	c0,0,0.1,0,0.1,0h23c16.1,0,29.3,13.1,29.3,29.3V453z"/>
<path d="M347.7,294.7c-5.4,1.3-8.7,6.6-7.5,12c1.5,6.4,2.3,13.1,2.3,19.8c0,47.8-38.9,86.7-86.7,86.7s-86.7-38.9-86.7-86.7
	s38.9-86.7,86.7-86.7c16,0,31.6,4.4,45.2,12.7c4.7,2.9,10.9,1.4,13.8-3.3c2.9-4.7,1.4-10.9-3.3-13.8c-16.7-10.2-36-15.6-55.7-15.6
	c-58.9,0-106.7,47.9-106.7,106.7s47.9,106.7,106.7,106.7s106.7-47.9,106.7-106.7c0-8.2-0.9-16.4-2.8-24.3
	C358.5,296.8,353.1,293.5,347.7,294.7z"/>
<path d="M324.9,273.9c0.3,0.6,0.6,1.2,0.9,1.7c0.4,0.5,0.8,1.1,1.2,1.5c0.5,0.5,1,0.9,1.5,1.3c0.5,0.4,1.1,0.7,1.7,0.9
	c0.6,0.3,1.2,0.4,1.9,0.6c0.6,0.1,1.3,0.2,1.9,0.2c0.7,0,1.3-0.1,2-0.2c0.6-0.1,1.3-0.3,1.9-0.6c0.6-0.3,1.2-0.6,1.7-0.9
	c0.5-0.4,1.1-0.8,1.5-1.3c1.9-1.9,2.9-4.4,2.9-7.1c0-0.7-0.1-1.3-0.2-1.9c-0.1-0.6-0.3-1.3-0.6-1.9c-0.3-0.6-0.6-1.2-0.9-1.7
	c-0.4-0.5-0.8-1.1-1.3-1.5s-1-0.9-1.5-1.2c-0.5-0.4-1.1-0.7-1.7-0.9c-0.6-0.3-1.2-0.4-1.9-0.6c-1.3-0.3-2.6-0.3-3.9,0
	c-0.6,0.1-1.3,0.3-1.9,0.6c-0.6,0.3-1.2,0.6-1.7,0.9c-0.6,0.4-1.1,0.8-1.5,1.2s-0.9,1-1.2,1.5c-0.4,0.5-0.7,1.1-0.9,1.7
	c-0.3,0.6-0.4,1.2-0.6,1.9c-0.1,0.6-0.2,1.3-0.2,1.9c0,0.7,0.1,1.3,0.2,2C324.4,272.7,324.6,273.4,324.9,273.9z"/>
</svg>
