<?xml version="1.0" encoding="utf-8"?>
<!-- Generator: Adobe Illustrator 22.1.0, SVG Export Plug-In . SVG Version: 6.00 Build 0)  -->
<svg version="1.1" id="Layer_1" xmlns="http://www.w3.org/2000/svg" xmlns:xlink="http://www.w3.org/1999/xlink" x="0px" y="0px"
	 viewBox="0 0 639 512" style="enable-background:new 0 0 639 512;" xml:space="preserve">
<style type="text/css">
	.st0{stroke:#000000;stroke-width:11;stroke-miterlimit:10;}
</style>
<path d="M209,429.7c-0.3-0.6-0.5-1.2-0.9-1.7c-0.4-0.6-0.8-1.1-1.2-1.5c-0.5-0.5-1-0.9-1.5-1.3c-0.5-0.4-1.1-0.7-1.7-0.9
	c-0.6-0.3-1.2-0.4-1.9-0.6c-1.3-0.3-2.6-0.3-3.9,0c-0.6,0.1-1.3,0.3-1.9,0.6c-0.6,0.3-1.2,0.6-1.7,0.9c-0.6,0.4-1.1,0.8-1.5,1.3
	c-0.5,0.5-0.9,1-1.2,1.5c-0.4,0.5-0.7,1.1-0.9,1.7c-0.3,0.6-0.5,1.2-0.6,1.9c-0.1,0.6-0.2,1.3-0.2,1.9s0.1,1.3,0.2,1.9
	c0.1,0.6,0.3,1.3,0.6,1.9c0.3,0.6,0.6,1.2,0.9,1.7c0.4,0.6,0.8,1.1,1.2,1.5c0.5,0.5,1,0.9,1.5,1.2c0.5,0.4,1.1,0.7,1.7,0.9
	c0.6,0.3,1.2,0.4,1.9,0.6s1.3,0.2,1.9,0.2c0.7,0,1.3-0.1,2-0.2c0.6-0.1,1.3-0.3,1.9-0.6c0.6-0.3,1.2-0.6,1.7-0.9
	c0.6-0.4,1.1-0.8,1.5-1.2c0.5-0.5,0.9-1,1.2-1.5c0.4-0.5,0.7-1.1,0.9-1.7c0.3-0.6,0.5-1.2,0.6-1.9s0.2-1.3,0.2-1.9s-0.1-1.3-0.2-1.9
	S209.2,430.3,209,429.7z"/>
<path d="M209,469.2c-0.3-0.6-0.6-1.2-0.9-1.7c-0.4-0.5-0.8-1.1-1.2-1.5c-2.3-2.3-5.8-3.4-9-2.7c-0.6,0.1-1.3,0.3-1.9,0.6
	c-0.6,0.3-1.2,0.6-1.7,0.9c-0.6,0.4-1.1,0.8-1.5,1.2c-0.5,0.5-0.9,1-1.2,1.5c-0.4,0.5-0.7,1.1-0.9,1.7c-0.3,0.6-0.4,1.2-0.6,1.9
	c-0.1,0.6-0.2,1.3-0.2,1.9s0.1,1.3,0.2,2c0.1,0.6,0.3,1.3,0.6,1.9c0.3,0.6,0.6,1.2,0.9,1.7c0.4,0.6,0.8,1.1,1.2,1.5
	c0.5,0.5,1,0.9,1.5,1.3c0.5,0.4,1.1,0.7,1.7,0.9c0.6,0.3,1.2,0.4,1.9,0.6c0.6,0.1,1.3,0.2,1.9,0.2c0.7,0,1.3-0.1,2-0.2
	c0.6-0.1,1.3-0.3,1.9-0.6c0.6-0.3,1.2-0.6,1.7-0.9c0.6-0.4,1.1-0.8,1.5-1.3c0.5-0.5,0.9-1,1.2-1.5c0.4-0.5,0.7-1.1,0.9-1.7
	c0.3-0.6,0.5-1.2,0.6-1.9c0.1-0.7,0.2-1.3,0.2-2s-0.1-1.3-0.2-1.9C209.4,470.4,209.2,469.8,209,469.2z"/>
<path d="M205.6,0h-11.7C109,0,40,69,40,153.9v148.9c0,16.2,13.2,29.3,29.3,29.3h66.1c4.1,3.4,8.5,6.5,13.1,9.1
	C97,351.3,57.9,396.4,57.1,450.6c0,0.1,0,0.2,0,0.4v1.1c0,0.1,0,0.1,0,0.2V502c0,5.5,4.5,10,10,10h265.3c5.5,0,10-4.5,10-10v-49.7
	c0-0.1,0-0.1,0-0.2V451c0-0.1,0-0.2,0-0.4c-0.8-54.9-40.8-100.4-93.3-109.8c4.4-2.6,8.5-5.5,12.5-8.8h68.6
	c16.2,0,29.3-13.2,29.3-29.3V153.9C359.5,69,290.4,0,205.6,0z M114.4,105.8c0,0,0.1,0,0.1,0c16.2,15.9,50.7,43.4,99.9,48.1
	c49.4,4.8,78.1,16,88.7,20.9c0.2,6.3,0.1,12.6-0.2,18.7c-2.1,38.3-13.9,72.5-35.2,102.1c-2.6,3.6-5.3,7-8.1,10.5l0,0
	c-2.6,3.1-5.3,6-8.3,8.6c-8.4,7.5-18.1,13-28.9,16.4c-1.2,0.4-2.5,0.7-3.7,1.1c-11.8,3.1-24.1,3.4-36,1c0,0,0,0-0.1,0
	c-0.3-0.1-0.7-0.2-1-0.2c-1.5-0.3-3.1-0.7-4.6-1.1c-11.6-3.3-22.1-9-31.1-17.1c-2.9-2.6-5.7-5.5-8.3-8.6c-1.1-1.3-2.1-2.6-3.1-3.9
	c-36.5-46.5-47.5-108.5-29.5-166L114.4,105.8C114.3,105.8,114.4,105.8,114.4,105.8z M203.7,387.9l-4,2.4l-4-2.4
	c-7.1-4.3-11.6-12.1-11.6-20.4v-13.9c0.1,0,0.2,0,0.3,0c0.9,0.1,1.8,0.2,2.8,0.3c0.3,0,0.6,0.1,0.9,0.1c1.2,0.1,2.4,0.2,3.7,0.3
	c0.3,0,0.6,0,0.9,0c0.9,0.1,1.9,0.1,2.8,0.1c0.4,0,0.9,0,1.3,0c0.6,0,1.1,0,1.7,0c0.2,0,0.4,0,0.6,0c0.6,0,1.2,0,1.8,0
	c0.7,0,1.4,0,2.1-0.1c0.6,0,1.2-0.1,1.8-0.1c0.7,0,1.4-0.1,2.1-0.1c0.6,0,1.2-0.1,1.8-0.2c0.7-0.1,1.4-0.1,2.1-0.2
	c0.6-0.1,1.2-0.2,1.7-0.2c0.7-0.1,1.4-0.2,2.1-0.3c0.3,0,0.6-0.1,0.8-0.1v14.3C215.3,375.8,210.9,383.6,203.7,387.9z M77.1,461h31
	v31h-31V461z M291.4,492v-31h31v31H291.4z M321.7,441h-30.3v-6c0-5.5-4.5-10-10-10s-10,4.5-10,10v57H128.1v-57c0-5.5-4.5-10-10-10
	s-10,4.5-10,10v6H77.8c5.4-44.1,41.6-78.8,86.4-81.7v8.2c0,15.3,8.2,29.7,21.3,37.6l5.1,3c0.4,0.2,0.7,0.4,1.1,0.6
	c0.1,0,0.2,0.1,0.3,0.1c0.3,0.1,0.5,0.3,0.8,0.4c0.2,0.1,0.4,0.2,0.6,0.2c0.2,0.1,0.3,0.1,0.5,0.2c0.3,0.1,0.6,0.2,0.9,0.3
	c0.1,0,0.1,0,0.2,0.1c0.3,0.1,0.7,0.2,1,0.2c0.1,0,0.1,0,0.2,0c0.3,0.1,0.7,0.1,1,0.2c0.1,0,0.1,0,0.2,0c0.3,0,0.7,0.1,1,0.1
	c0.1,0,0.1,0,0.2,0c0.3,0,0.6,0,0.9,0c0.1,0,0.2,0,0.3,0h0c0.3,0,0.5,0,0.8,0c0.1,0,0.3,0,0.4,0c0.2,0,0.4,0,0.6-0.1
	c0.2,0,0.4,0,0.5-0.1c0.1,0,0.3-0.1,0.5-0.1c0.2,0,0.5-0.1,0.7-0.1c0.1,0,0.1,0,0.2-0.1c1.9-0.4,3.7-1.1,5.4-2.1l5.1-3
	c13.2-7.8,21.3-22.2,21.3-37.6v-8.2C280.1,362.2,316.3,396.9,321.7,441z M339.5,302.8c0,5.1-4.2,9.3-9.3,9.3h-49.9
	c0.2-0.2,0.4-0.5,0.5-0.7c0.4-0.6,0.8-1.1,1.3-1.7c0.6-0.8,1.1-1.5,1.7-2.3c0.4-0.6,0.8-1.2,1.2-1.7c0.5-0.8,1.1-1.5,1.6-2.3
	c0.4-0.6,0.8-1.2,1.2-1.8c0.5-0.8,1-1.5,1.5-2.3c0.4-0.6,0.8-1.2,1.2-1.8c0.5-0.8,1-1.5,1.5-2.3c0.4-0.6,0.7-1.2,1.1-1.8
	c0.5-0.8,0.9-1.6,1.4-2.4c0.4-0.6,0.7-1.2,1.1-1.8c0.5-0.8,0.9-1.6,1.4-2.4c0.3-0.6,0.7-1.2,1-1.8c0.4-0.8,0.9-1.6,1.3-2.4
	c0.3-0.6,0.6-1.2,0.9-1.8c0.4-0.8,0.9-1.7,1.3-2.5c0.3-0.6,0.6-1.2,0.9-1.8c0.4-0.9,0.8-1.8,1.3-2.6c0.3-0.6,0.5-1.1,0.8-1.7
	c0.4-0.9,0.8-1.9,1.3-2.8c0.2-0.5,0.5-1,0.7-1.6c0.5-1.1,0.9-2.2,1.4-3.3c0.2-0.4,0.3-0.8,0.5-1.2c1.2-3,2.3-6,3.4-9.1
	c0.2-0.4,0.3-0.9,0.4-1.3c0.4-1.1,0.7-2.2,1.1-3.3c0.2-0.6,0.4-1.2,0.5-1.7c0.3-1,0.6-1.9,0.9-2.9c0.2-0.6,0.4-1.3,0.5-1.9
	c0.3-0.9,0.5-1.8,0.8-2.8c0.2-0.7,0.3-1.3,0.5-2c0.2-0.9,0.5-1.8,0.7-2.7c0.2-0.7,0.3-1.4,0.5-2.1c0.2-0.9,0.4-1.8,0.6-2.7
	c0.2-0.7,0.3-1.4,0.5-2.1c0.2-0.9,0.4-1.8,0.5-2.7c0.1-0.7,0.3-1.5,0.4-2.2c0.2-0.9,0.3-1.8,0.5-2.7c0.1-0.7,0.3-1.5,0.4-2.2
	c0.1-0.9,0.3-1.8,0.4-2.7c0.1-0.8,0.2-1.5,0.3-2.3c0.1-0.9,0.2-1.8,0.4-2.7c0.1-0.8,0.2-1.5,0.3-2.3c0.1-0.9,0.2-1.8,0.3-2.7
	c0.1-0.8,0.2-1.5,0.2-2.3c0.1-0.9,0.2-1.8,0.2-2.7c0.1-0.8,0.1-1.5,0.2-2.3c0.1-0.9,0.1-1.9,0.2-2.8c0-0.8,0.1-1.5,0.1-2.3
	c0.1-0.9,0.1-1.9,0.1-2.9c0-0.8,0.1-1.5,0.1-2.3c0-1,0-2,0.1-2.9c0-0.7,0-1.5,0-2.2c0-1,0-2.1,0-3.1c0-0.7,0-1.4,0-2.1
	c0-1.2,0-2.3-0.1-3.5c0-0.6,0-1.2,0-1.8c-0.1-1.8-0.1-3.5-0.2-5.3c-0.2-3.3-2-6.4-4.8-8.1c-1.3-0.8-32.9-19.3-101.7-26
	c-1.3-0.1-2.7-0.3-4-0.4c-33-4.2-58.2-20.1-74-33.2c-0.6-0.5-1.3-1-1.9-1.6c-1.2-1-2.3-2-3.4-3c-1.6-1.5-3.1-2.9-4.4-4.2
	c-1.9-1.9-4.1-3.3-6.4-4.3c-3.9-1.6-8.3-2-12.6-0.9c-6.8,1.7-12.2,6.7-14.3,13.5l-9.5,30.3c-0.6,2-1.2,4-1.8,5.9
	c-0.2,0.7-0.4,1.4-0.5,2.1c-0.4,1.3-0.7,2.6-1,3.9c-0.2,0.8-0.4,1.7-0.6,2.5c-0.3,1.2-0.6,2.3-0.8,3.5c-0.2,0.9-0.4,1.8-0.6,2.7
	c-0.2,1.1-0.5,2.2-0.7,3.3c-0.2,0.9-0.3,1.9-0.5,2.8c-0.2,1.1-0.4,2.1-0.5,3.2c-0.2,1-0.3,1.9-0.4,2.9c-0.1,1-0.3,2.1-0.4,3.1
	c-0.1,1-0.2,2-0.3,3c-0.1,1-0.2,2-0.3,3.1c-0.1,1-0.2,2-0.3,3c-0.1,1-0.2,2-0.2,3c-0.1,1-0.1,2-0.2,3.1c-0.1,1-0.1,2-0.1,3
	c0,1-0.1,2.1-0.1,3.1c0,1,0,2-0.1,2.9c0,1,0,2.1,0,3.1c0,1,0,1.9,0,2.9c0,1,0.1,2.1,0.1,3.1c0,1,0.1,1.9,0.1,2.9
	c0.1,1,0.1,2.1,0.2,3.1c0.1,1,0.1,1.9,0.2,2.9c0.1,1,0.2,2.1,0.3,3.1c0.1,0.9,0.2,1.9,0.3,2.8c0.1,1,0.3,2.1,0.4,3.1
	c0.1,0.9,0.2,1.9,0.4,2.8c0.1,1,0.3,2.1,0.5,3.1c0.1,0.9,0.3,1.9,0.5,2.8c0.2,1,0.4,2.1,0.6,3.1c0.2,0.9,0.4,1.9,0.5,2.8
	c0.2,1,0.4,2,0.7,3.1c0.2,0.9,0.4,1.9,0.6,2.8c0.2,1,0.5,2,0.8,3c0.2,0.9,0.5,1.8,0.7,2.8c0.3,1,0.6,2,0.8,3
	c0.3,0.9,0.5,1.8,0.8,2.7c0.3,1,0.6,2,0.9,3c0.3,0.9,0.6,1.8,0.9,2.7c0.3,1,0.7,2,1,2.9c0.3,0.9,0.6,1.8,1,2.7
	c0.4,1,0.7,1.9,1.1,2.9c0.3,0.9,0.7,1.8,1.1,2.7c0.4,1,0.8,1.9,1.2,2.9c0.4,0.9,0.8,1.8,1.1,2.7c0.4,0.9,0.8,1.9,1.3,2.8
	c0.4,0.9,0.8,1.8,1.2,2.6c0.4,0.9,0.9,1.8,1.3,2.8c0.4,0.9,0.9,1.8,1.3,2.6c0.5,0.9,0.9,1.8,1.4,2.7c0.5,0.9,0.9,1.7,1.4,2.6
	c0.5,0.9,1,1.8,1.5,2.7c0.5,0.9,1,1.7,1.5,2.6c0.5,0.9,1,1.7,1.6,2.6c0.5,0.9,1.1,1.7,1.6,2.6c0.5,0.8,1.1,1.7,1.6,2.5
	c0.6,0.9,1.1,1.7,1.7,2.5c0.6,0.8,1.1,1.6,1.7,2.5c0.6,0.8,1.2,1.7,1.8,2.5c0.6,0.8,1.2,1.6,1.8,2.4c0.3,0.4,0.6,0.9,0.9,1.3H69.3
	c-5.1,0-9.3-4.2-9.3-9.3V153.9C60,80.1,120.1,20,193.9,20h11.7c73.8,0,133.9,60.1,133.9,133.9V302.8z"/>
<path d="M231.8,193.1c12.9-2.8,26.6-1.4,38.6,4.1l3.2,1.4c1.3,0.6,2.7,0.9,4.1,0.9c3.8,0,7.4-2.2,9.1-5.9c2.3-5,0.1-11-5-13.2
	l-3.2-1.4c-15.9-7.2-34.1-9.1-51.2-5.4c-5.4,1.2-8.8,6.5-7.6,11.9C221.1,190.9,226.4,194.3,231.8,193.1z"/>
<path d="M121.7,199.6c1.4,0,2.8-0.3,4.1-0.9l3.2-1.4c12-5.5,25.7-6.9,38.6-4.1c5.4,1.2,10.7-2.2,11.9-7.6c1.2-5.4-2.2-10.7-7.6-11.9
	c-17.1-3.8-35.3-1.8-51.2,5.4l-3.2,1.4c-5,2.3-7.3,8.2-5,13.2C114.3,197.4,117.9,199.6,121.7,199.6z"/>
<path d="M256.9,211.5c-0.3-0.6-0.6-1.2-0.9-1.7c-0.4-0.5-0.8-1.1-1.3-1.5c-0.5-0.5-1-0.9-1.5-1.3c-0.5-0.4-1.1-0.7-1.7-0.9
	c-0.6-0.3-1.2-0.4-1.9-0.6c-1.3-0.3-2.6-0.3-3.9,0c-0.6,0.1-1.3,0.3-1.9,0.6c-0.6,0.3-1.2,0.6-1.7,0.9c-0.6,0.4-1.1,0.8-1.5,1.3
	c-0.5,0.5-0.9,1-1.2,1.5c-0.4,0.5-0.7,1.1-0.9,1.7c-0.3,0.6-0.4,1.2-0.6,1.9c-0.1,0.6-0.2,1.3-0.2,2c0,0.6,0.1,1.3,0.2,1.9
	s0.3,1.3,0.6,1.9c0.3,0.6,0.6,1.2,0.9,1.7c0.4,0.5,0.8,1.1,1.2,1.5c0.5,0.5,1,0.9,1.5,1.2c0.5,0.4,1.1,0.7,1.7,0.9
	c0.6,0.3,1.2,0.4,1.9,0.6c0.6,0.1,1.3,0.2,1.9,0.2c0.6,0,1.3-0.1,2-0.2c0.6-0.1,1.3-0.3,1.9-0.6c0.6-0.3,1.2-0.6,1.7-0.9
	c0.5-0.4,1.1-0.8,1.5-1.2c0.5-0.5,0.9-1,1.3-1.5c0.4-0.5,0.7-1.1,0.9-1.7c0.3-0.6,0.4-1.2,0.6-1.9s0.2-1.3,0.2-1.9
	c0-0.7-0.1-1.3-0.2-2C257.4,212.7,257.2,212.1,256.9,211.5z"/>
<path d="M161,211.5c-0.3-0.6-0.6-1.2-0.9-1.7c-0.4-0.5-0.8-1.1-1.2-1.5c-2.3-2.3-5.8-3.4-9-2.7c-0.6,0.1-1.3,0.3-1.9,0.6
	c-0.6,0.3-1.2,0.6-1.7,0.9c-0.5,0.4-1.1,0.8-1.5,1.3c-0.5,0.5-0.9,1-1.3,1.5c-0.4,0.5-0.7,1.1-0.9,1.7c-0.3,0.6-0.4,1.2-0.6,1.9
	c-0.1,0.6-0.2,1.3-0.2,2c0,0.6,0.1,1.3,0.2,1.9c0.1,0.6,0.3,1.3,0.6,1.9c0.3,0.6,0.6,1.2,0.9,1.7c0.4,0.5,0.8,1.1,1.3,1.5
	c0.5,0.5,1,0.9,1.5,1.2c0.5,0.4,1.1,0.7,1.7,0.9c0.6,0.3,1.2,0.4,1.9,0.6c0.7,0.1,1.3,0.2,2,0.2c0.7,0,1.3-0.1,1.9-0.2
	c0.6-0.1,1.3-0.3,1.9-0.6c0.6-0.3,1.2-0.6,1.7-0.9c0.6-0.4,1.1-0.8,1.5-1.2c0.5-0.5,0.9-1,1.2-1.5c0.4-0.5,0.7-1.1,0.9-1.7
	c0.3-0.6,0.4-1.2,0.6-1.9s0.2-1.3,0.2-1.9c0-0.7-0.1-1.3-0.2-2C161.4,212.7,161.3,212.1,161,211.5z"/>
<path d="M173.8,284c-2.7,4.8-1,10.9,3.9,13.6c6.4,3.5,13.3,5.3,20.3,5.3c7,0,14-1.8,20.3-5.3c4.8-2.7,6.6-8.8,3.9-13.6
	c-2.7-4.8-8.8-6.6-13.6-3.9c-6.6,3.7-14.6,3.7-21.2,0C182.6,277.5,176.5,279.2,173.8,284z"/>
<path d="M226.8,44.3c-5.5-0.8-10.6,2.9-11.4,8.4c-0.8,5.5,2.9,10.6,8.4,11.4c45.9,6.9,65.3,51.1,65.6,51.8c1.6,3.8,5.3,6.1,9.2,6.1
	c1.3,0,2.6-0.3,3.8-0.8c5.1-2.1,7.5-8,5.4-13.1C306.9,105.8,284.2,52.8,226.8,44.3z"/>
<path d="M187.3,39.7L187.3,39.7c-5.5,0-10,4.5-10,10c0,5.5,4.5,10,10,10s10-4.5,10-10C197.3,44.1,192.9,39.7,187.3,39.7z"/>
<path class="st0" d="M563.8,319.9h-7.1V311c0-5.9-4.8-10.8-10.8-10.8h-9.1v-33.2c0-8-6.5-14.6-14.6-14.6h-8.9v-3.1
	c0-7.8-6.3-14.1-14.1-14.1h-80.8c-7.8,0-14.1,6.3-14.1,14.1v3.1h-8.9c-8,0-14.6,6.5-14.6,14.6v33.2h-8.8c-5.9,0-10.8,4.8-10.8,10.8
	v8.9h-7.4c-14.7,0-26.6,11.9-26.6,26.6v133.6c0,13.2,10.8,24,24,24h3.6c1.8,4.6,6.3,7.9,11.6,7.9h10.9c5.3,0,9.8-3.3,11.6-7.9h139.5
	c1.8,4.6,6.3,7.9,11.6,7.9h10.9c5.3,0,9.8-3.3,11.6-7.9h3.6c13.2,0,24-10.8,24-24V346.5C590.5,331.8,578.5,319.9,563.8,319.9z
	 M546,319.9H517v-8.8H546V319.9z M415.3,249.4c0-1.8,1.5-3.3,3.3-3.3h80.8c1.8,0,3.3,1.5,3.3,3.3V266c0,1.8-1.5,3.3-3.3,3.3h-80.8
	c-1.8,0-3.3-1.5-3.3-3.3V249.4z M391.9,267.1c0-2.1,1.7-3.8,3.8-3.8h8.9v2.7c0,7.8,6.3,14.1,14.1,14.1h80.8
	c7.8,0,14.1-6.3,14.1-14.1v-2.7h8.9c2.1,0,3.8,1.7,3.8,3.8v33.2H517c-5.9,0-10.8,4.8-10.8,10.8v8.9h-94.1V311
	c0-5.9-4.8-10.8-10.8-10.8h-9.5V267.1z M372.3,311.1h28.9v8.8h-28.9V311.1z M379.3,499.5c0,0.9-0.8,1.7-1.7,1.7h-10.9
	c-0.9,0-1.7-0.8-1.7-1.7v-30.1h14.3L379.3,499.5L379.3,499.5z M552.9,499.5c0,0.9-0.8,1.7-1.7,1.7h-10.9c-0.9,0-1.7-0.8-1.7-1.7
	v-30.1h14.3L552.9,499.5L552.9,499.5z M579.7,480.1c0,7.3-5.9,13.2-13.2,13.2h-2.7v-25.6c0-5-4.1-9.1-9.1-9.1H537
	c-5,0-9.1,4.1-9.1,9.1v25.6H390.1v-25.6c0-5-4.1-9.1-9.1-9.1h-17.6c-5,0-9.1,4.1-9.1,9.1v25.6h-2.7c-7.3,0-13.2-5.9-13.2-13.2V346.5
	c0-8.7,7.1-15.8,15.8-15.8h12.8c0,0,0,0,0.1,0h39.7c0,0,0,0,0.1,0h104.8c0,0,0,0,0.1,0h39.7c0,0,0,0,0.1,0h12.4
	c8.7,0,15.8,7.1,15.8,15.8V480.1z"/>
</svg>
