<?xml version="1.0" encoding="utf-8"?>
<!-- Generator: Adobe Illustrator 22.1.0, SVG Export Plug-In . SVG Version: 6.00 Build 0)  -->
<svg version="1.1" id="Layer_1" xmlns="http://www.w3.org/2000/svg" xmlns:xlink="http://www.w3.org/1999/xlink" x="0px" y="0px"
	 viewBox="0 0 764.8 512" style="enable-background:new 0 0 764.8 512;" xml:space="preserve">
<g>
	<path d="M517.8,429.7c-0.3-0.6-0.5-1.2-0.9-1.7c-0.4-0.6-0.8-1.1-1.2-1.5c-0.5-0.5-1-0.9-1.5-1.3c-0.5-0.4-1.1-0.7-1.7-0.9
		c-0.6-0.3-1.2-0.4-1.9-0.6c-1.3-0.3-2.6-0.3-3.9,0c-0.6,0.1-1.3,0.3-1.9,0.6c-0.6,0.3-1.2,0.6-1.7,0.9c-0.6,0.4-1.1,0.8-1.5,1.3
		c-0.5,0.5-0.9,1-1.2,1.5c-0.4,0.5-0.7,1.1-0.9,1.7c-0.3,0.6-0.5,1.2-0.6,1.9c-0.1,0.6-0.2,1.3-0.2,1.9s0.1,1.3,0.2,1.9
		c0.1,0.6,0.3,1.3,0.6,1.9c0.3,0.6,0.6,1.2,0.9,1.7c0.4,0.6,0.8,1.1,1.2,1.5c0.5,0.5,1,0.9,1.5,1.2c0.5,0.4,1.1,0.7,1.7,0.9
		c0.6,0.3,1.2,0.4,1.9,0.6s1.3,0.2,1.9,0.2c0.7,0,1.3-0.1,2-0.2c0.6-0.1,1.3-0.3,1.9-0.6c0.6-0.3,1.2-0.6,1.7-0.9
		c0.6-0.4,1.1-0.8,1.5-1.2c0.5-0.5,0.9-1,1.2-1.5c0.4-0.5,0.7-1.1,0.9-1.7c0.3-0.6,0.5-1.2,0.6-1.9s0.2-1.3,0.2-1.9
		s-0.1-1.3-0.2-1.9S518,430.3,517.8,429.7z"/>
	<path d="M517.8,469.2c-0.3-0.6-0.6-1.2-0.9-1.7c-0.4-0.5-0.8-1.1-1.2-1.5c-2.3-2.3-5.8-3.4-9-2.7c-0.6,0.1-1.3,0.3-1.9,0.6
		c-0.6,0.3-1.2,0.6-1.7,0.9c-0.6,0.4-1.1,0.8-1.5,1.2c-0.5,0.5-0.9,1-1.2,1.5c-0.4,0.5-0.7,1.1-0.9,1.7c-0.3,0.6-0.4,1.2-0.6,1.9
		c-0.1,0.6-0.2,1.3-0.2,1.9s0.1,1.3,0.2,2c0.1,0.6,0.3,1.3,0.6,1.9c0.3,0.6,0.6,1.2,0.9,1.7c0.4,0.6,0.8,1.1,1.2,1.5
		c0.5,0.5,1,0.9,1.5,1.3c0.5,0.4,1.1,0.7,1.7,0.9c0.6,0.3,1.2,0.4,1.9,0.6c0.6,0.1,1.3,0.2,1.9,0.2c0.7,0,1.3-0.1,2-0.2
		c0.6-0.1,1.3-0.3,1.9-0.6c0.6-0.3,1.2-0.6,1.7-0.9c0.6-0.4,1.1-0.8,1.5-1.3c0.5-0.5,0.9-1,1.2-1.5c0.4-0.5,0.7-1.1,0.9-1.7
		c0.3-0.6,0.5-1.2,0.6-1.9c0.1-0.7,0.2-1.3,0.2-2s-0.1-1.3-0.2-1.9C518.3,470.4,518,469.8,517.8,469.2z"/>
	<path d="M514.4,0h-11.7c-84.9,0-153.9,69-153.9,153.9v148.9c0,16.2,13.2,29.3,29.3,29.3h66.1c4.1,3.4,8.5,6.5,13.1,9.1
		c-51.5,10.1-90.6,55.2-91.4,109.4c0,0.1,0,0.2,0,0.4v1.1c0,0.1,0,0.1,0,0.2V502c0,5.5,4.5,10,10,10h265.3c5.5,0,10-4.5,10-10v-49.7
		c0-0.1,0-0.1,0-0.2V451c0-0.1,0-0.2,0-0.4c-0.8-54.9-40.8-100.4-93.3-109.8c4.4-2.6,8.5-5.5,12.5-8.8H639
		c16.2,0,29.3-13.2,29.3-29.3V153.9C668.3,69,599.3,0,514.4,0z M423.2,105.8c0,0,0.1,0,0.1,0c16.2,15.9,50.7,43.4,99.9,48.1
		c49.4,4.8,78.1,16,88.7,20.9c0.2,6.3,0.1,12.6-0.2,18.7c-2.1,38.3-13.9,72.5-35.2,102.1c-2.6,3.6-5.3,7-8.1,10.5l0,0
		c-2.6,3.1-5.3,6-8.3,8.6c-8.4,7.5-18.1,13-28.9,16.4c-1.2,0.4-2.5,0.7-3.7,1.1c-11.8,3.1-24.1,3.4-36,1c0,0,0,0-0.1,0
		c-0.3-0.1-0.7-0.2-1-0.2c-1.5-0.3-3.1-0.7-4.6-1.1c-11.6-3.3-22.1-9-31.1-17.1c-2.9-2.6-5.7-5.5-8.3-8.6c-1.1-1.3-2.1-2.6-3.1-3.9
		c-36.5-46.5-47.5-108.5-29.5-166L423.2,105.8C423.2,105.8,423.2,105.8,423.2,105.8z M512.6,387.9l-4,2.4l-4-2.4
		c-7.1-4.3-11.6-12.1-11.6-20.4v-13.9c0.1,0,0.2,0,0.3,0c0.9,0.1,1.8,0.2,2.8,0.3c0.3,0,0.6,0.1,0.9,0.1c1.2,0.1,2.4,0.2,3.7,0.3
		c0.3,0,0.6,0,0.9,0c0.9,0.1,1.9,0.1,2.8,0.1c0.4,0,0.9,0,1.3,0c0.6,0,1.1,0,1.7,0c0.2,0,0.4,0,0.6,0c0.6,0,1.2,0,1.8,0
		c0.7,0,1.4,0,2.1-0.1c0.6,0,1.2-0.1,1.8-0.1c0.7,0,1.4-0.1,2.1-0.1c0.6,0,1.2-0.1,1.8-0.2c0.7-0.1,1.4-0.1,2.1-0.2
		c0.6-0.1,1.2-0.2,1.7-0.2c0.7-0.1,1.4-0.2,2.1-0.3c0.3,0,0.6-0.1,0.8-0.1v14.3C524.1,375.8,519.7,383.6,512.6,387.9z M385.9,461h31
		v31h-31V461z M600.2,492v-31h31v31H600.2z M630.5,441h-30.3v-6c0-5.5-4.5-10-10-10s-10,4.5-10,10v57H436.9v-57c0-5.5-4.5-10-10-10
		s-10,4.5-10,10v6h-30.3c5.4-44.1,41.6-78.8,86.4-81.7v8.2c0,15.3,8.2,29.7,21.3,37.6l5.1,3c0.4,0.2,0.7,0.4,1.1,0.6
		c0.1,0,0.2,0.1,0.3,0.1c0.3,0.1,0.5,0.3,0.8,0.4c0.2,0.1,0.4,0.2,0.6,0.2c0.2,0.1,0.3,0.1,0.5,0.2c0.3,0.1,0.6,0.2,0.9,0.3
		c0.1,0,0.1,0,0.2,0.1c0.3,0.1,0.7,0.2,1,0.2c0.1,0,0.1,0,0.2,0c0.3,0.1,0.7,0.1,1,0.2c0.1,0,0.1,0,0.2,0c0.3,0,0.7,0.1,1,0.1
		c0.1,0,0.1,0,0.2,0c0.3,0,0.6,0,0.9,0c0.1,0,0.2,0,0.3,0h0c0.3,0,0.5,0,0.8,0c0.1,0,0.3,0,0.4,0c0.2,0,0.4,0,0.6-0.1
		c0.2,0,0.4,0,0.5-0.1c0.1,0,0.3-0.1,0.5-0.1c0.2,0,0.5-0.1,0.7-0.1c0.1,0,0.1,0,0.2-0.1c1.9-0.4,3.7-1.1,5.4-2.1l5.1-3
		c13.2-7.8,21.3-22.2,21.3-37.6v-8.2C588.9,362.2,625.1,396.9,630.5,441z M648.3,302.8c0,5.1-4.2,9.3-9.3,9.3H589
		c0.2-0.2,0.4-0.5,0.5-0.7c0.4-0.6,0.8-1.1,1.3-1.7c0.6-0.8,1.1-1.5,1.7-2.3c0.4-0.6,0.8-1.2,1.2-1.7c0.5-0.8,1.1-1.5,1.6-2.3
		c0.4-0.6,0.8-1.2,1.2-1.8c0.5-0.8,1-1.5,1.5-2.3c0.4-0.6,0.8-1.2,1.2-1.8c0.5-0.8,1-1.5,1.5-2.3c0.4-0.6,0.7-1.2,1.1-1.8
		c0.5-0.8,0.9-1.6,1.4-2.4c0.4-0.6,0.7-1.2,1.1-1.8c0.5-0.8,0.9-1.6,1.4-2.4c0.3-0.6,0.7-1.2,1-1.8c0.4-0.8,0.9-1.6,1.3-2.4
		c0.3-0.6,0.6-1.2,0.9-1.8c0.4-0.8,0.9-1.7,1.3-2.5c0.3-0.6,0.6-1.2,0.9-1.8c0.4-0.9,0.8-1.8,1.3-2.6c0.3-0.6,0.5-1.1,0.8-1.7
		c0.4-0.9,0.8-1.9,1.3-2.8c0.2-0.5,0.5-1,0.7-1.6c0.5-1.1,0.9-2.2,1.4-3.3c0.2-0.4,0.3-0.8,0.5-1.2c1.2-3,2.3-6,3.4-9.1
		c0.2-0.4,0.3-0.9,0.4-1.3c0.4-1.1,0.7-2.2,1.1-3.3c0.2-0.6,0.4-1.2,0.5-1.7c0.3-1,0.6-1.9,0.9-2.9c0.2-0.6,0.4-1.3,0.5-1.9
		c0.3-0.9,0.5-1.8,0.8-2.8c0.2-0.7,0.3-1.3,0.5-2c0.2-0.9,0.5-1.8,0.7-2.7c0.2-0.7,0.3-1.4,0.5-2.1c0.2-0.9,0.4-1.8,0.6-2.7
		c0.2-0.7,0.3-1.4,0.5-2.1c0.2-0.9,0.4-1.8,0.5-2.7c0.1-0.7,0.3-1.5,0.4-2.2c0.2-0.9,0.3-1.8,0.5-2.7c0.1-0.7,0.3-1.5,0.4-2.2
		c0.1-0.9,0.3-1.8,0.4-2.7c0.1-0.8,0.2-1.5,0.3-2.3c0.1-0.9,0.2-1.8,0.4-2.7c0.1-0.8,0.2-1.5,0.3-2.3c0.1-0.9,0.2-1.8,0.3-2.7
		c0.1-0.8,0.2-1.5,0.2-2.3c0.1-0.9,0.2-1.8,0.2-2.7c0.1-0.8,0.1-1.5,0.2-2.3c0.1-0.9,0.1-1.9,0.2-2.8c0-0.8,0.1-1.5,0.1-2.3
		c0.1-0.9,0.1-1.9,0.1-2.9c0-0.8,0.1-1.5,0.1-2.3c0-1,0-2,0.1-2.9c0-0.7,0-1.5,0-2.2c0-1,0-2.1,0-3.1c0-0.7,0-1.4,0-2.1
		c0-1.2,0-2.3-0.1-3.5c0-0.6,0-1.2,0-1.8c-0.1-1.8-0.1-3.5-0.2-5.3c-0.2-3.3-2-6.4-4.8-8.1c-1.3-0.8-32.9-19.3-101.7-26
		c-1.3-0.1-2.7-0.3-4-0.4c-33-4.2-58.2-20.1-74-33.2c-0.6-0.5-1.3-1-1.9-1.6c-1.2-1-2.3-2-3.4-3c-1.6-1.5-3.1-2.9-4.4-4.2
		c-1.9-1.9-4.1-3.3-6.4-4.3c-3.9-1.6-8.3-2-12.6-0.9c-6.8,1.7-12.2,6.7-14.3,13.5l-9.5,30.3c-0.6,2-1.2,4-1.8,5.9
		c-0.2,0.7-0.4,1.4-0.5,2.1c-0.4,1.3-0.7,2.6-1,3.9c-0.2,0.8-0.4,1.7-0.6,2.5c-0.3,1.2-0.6,2.3-0.8,3.5c-0.2,0.9-0.4,1.8-0.6,2.7
		c-0.2,1.1-0.5,2.2-0.7,3.3c-0.2,0.9-0.3,1.9-0.5,2.8c-0.2,1.1-0.4,2.1-0.5,3.2c-0.2,1-0.3,1.9-0.4,2.9c-0.1,1-0.3,2.1-0.4,3.1
		c-0.1,1-0.2,2-0.3,3c-0.1,1-0.2,2-0.3,3.1c-0.1,1-0.2,2-0.3,3c-0.1,1-0.2,2-0.2,3c-0.1,1-0.1,2-0.2,3.1c-0.1,1-0.1,2-0.1,3
		c0,1-0.1,2.1-0.1,3.1c0,1,0,2-0.1,2.9c0,1,0,2.1,0,3.1c0,1,0,1.9,0,2.9c0,1,0.1,2.1,0.1,3.1c0,1,0.1,1.9,0.1,2.9
		c0.1,1,0.1,2.1,0.2,3.1c0.1,1,0.1,1.9,0.2,2.9c0.1,1,0.2,2.1,0.3,3.1c0.1,0.9,0.2,1.9,0.3,2.8c0.1,1,0.3,2.1,0.4,3.1
		c0.1,0.9,0.2,1.9,0.4,2.8c0.1,1,0.3,2.1,0.5,3.1c0.1,0.9,0.3,1.9,0.5,2.8c0.2,1,0.4,2.1,0.6,3.1c0.2,0.9,0.4,1.9,0.5,2.8
		c0.2,1,0.4,2,0.7,3.1c0.2,0.9,0.4,1.9,0.6,2.8c0.2,1,0.5,2,0.8,3c0.2,0.9,0.5,1.8,0.7,2.8c0.3,1,0.6,2,0.8,3
		c0.3,0.9,0.5,1.8,0.8,2.7c0.3,1,0.6,2,0.9,3c0.3,0.9,0.6,1.8,0.9,2.7c0.3,1,0.7,2,1,2.9c0.3,0.9,0.6,1.8,1,2.7
		c0.4,1,0.7,1.9,1.1,2.9c0.3,0.9,0.7,1.8,1.1,2.7c0.4,1,0.8,1.9,1.2,2.9c0.4,0.9,0.8,1.8,1.1,2.7c0.4,0.9,0.8,1.9,1.3,2.8
		c0.4,0.9,0.8,1.8,1.2,2.6c0.4,0.9,0.9,1.8,1.3,2.8c0.4,0.9,0.9,1.8,1.3,2.6c0.5,0.9,0.9,1.8,1.4,2.7c0.5,0.9,0.9,1.7,1.4,2.6
		c0.5,0.9,1,1.8,1.5,2.7c0.5,0.9,1,1.7,1.5,2.6c0.5,0.9,1,1.7,1.6,2.6c0.5,0.9,1.1,1.7,1.6,2.6c0.5,0.8,1.1,1.7,1.6,2.5
		c0.6,0.9,1.1,1.7,1.7,2.5c0.6,0.8,1.1,1.6,1.7,2.5c0.6,0.8,1.2,1.7,1.8,2.5c0.6,0.8,1.2,1.6,1.8,2.4c0.3,0.4,0.6,0.9,0.9,1.3h-47.5
		c-5.1,0-9.3-4.2-9.3-9.3V153.9C368.8,80.1,428.9,20,502.7,20h11.7c73.8,0,133.9,60.1,133.9,133.9V302.8z"/>
	<path d="M540.7,193.1c12.9-2.8,26.6-1.4,38.6,4.1l3.2,1.4c1.3,0.6,2.7,0.9,4.1,0.9c3.8,0,7.4-2.2,9.1-5.9c2.3-5,0.1-11-5-13.2
		l-3.2-1.4c-15.9-7.2-34.1-9.1-51.2-5.4c-5.4,1.2-8.8,6.5-7.6,11.9C529.9,190.9,535.3,194.3,540.7,193.1z"/>
	<path d="M430.6,199.6c1.4,0,2.8-0.3,4.1-0.9l3.2-1.4c12-5.5,25.7-6.9,38.6-4.1c5.4,1.2,10.7-2.2,11.9-7.6
		c1.2-5.4-2.2-10.7-7.6-11.9c-17.1-3.8-35.3-1.8-51.2,5.4l-3.2,1.4c-5,2.3-7.3,8.2-5,13.2C423.1,197.4,426.8,199.6,430.6,199.6z"/>
	<path d="M565.8,211.5c-0.3-0.6-0.6-1.2-0.9-1.7c-0.4-0.5-0.8-1.1-1.3-1.5c-0.5-0.5-1-0.9-1.5-1.3c-0.5-0.4-1.1-0.7-1.7-0.9
		c-0.6-0.3-1.2-0.4-1.9-0.6c-1.3-0.3-2.6-0.3-3.9,0c-0.6,0.1-1.3,0.3-1.9,0.6c-0.6,0.3-1.2,0.6-1.7,0.9c-0.6,0.4-1.1,0.8-1.5,1.3
		c-0.5,0.5-0.9,1-1.2,1.5c-0.4,0.5-0.7,1.1-0.9,1.7c-0.3,0.6-0.4,1.2-0.6,1.9c-0.1,0.6-0.2,1.3-0.2,2c0,0.6,0.1,1.3,0.2,1.9
		s0.3,1.3,0.6,1.9c0.3,0.6,0.6,1.2,0.9,1.7c0.4,0.5,0.8,1.1,1.2,1.5c0.5,0.5,1,0.9,1.5,1.2c0.5,0.4,1.1,0.7,1.7,0.9
		c0.6,0.3,1.2,0.4,1.9,0.6c0.6,0.1,1.3,0.2,1.9,0.2c0.6,0,1.3-0.1,2-0.2c0.6-0.1,1.3-0.3,1.9-0.6c0.6-0.3,1.2-0.6,1.7-0.9
		c0.5-0.4,1.1-0.8,1.5-1.2c0.5-0.5,0.9-1,1.3-1.5c0.4-0.5,0.7-1.1,0.9-1.7c0.3-0.6,0.4-1.2,0.6-1.9s0.2-1.3,0.2-1.9
		c0-0.7-0.1-1.3-0.2-2C566.2,212.7,566,212.1,565.8,211.5z"/>
	<path d="M469.8,211.5c-0.3-0.6-0.6-1.2-0.9-1.7c-0.4-0.5-0.8-1.1-1.2-1.5c-2.3-2.3-5.8-3.4-9-2.7c-0.6,0.1-1.3,0.3-1.9,0.6
		c-0.6,0.3-1.2,0.6-1.7,0.9c-0.5,0.4-1.1,0.8-1.5,1.3c-0.5,0.5-0.9,1-1.3,1.5c-0.4,0.5-0.7,1.1-0.9,1.7c-0.3,0.6-0.4,1.2-0.6,1.9
		c-0.1,0.6-0.2,1.3-0.2,2c0,0.6,0.1,1.3,0.2,1.9c0.1,0.6,0.3,1.3,0.6,1.9c0.3,0.6,0.6,1.2,0.9,1.7c0.4,0.5,0.8,1.1,1.3,1.5
		c0.5,0.5,1,0.9,1.5,1.2c0.5,0.4,1.1,0.7,1.7,0.9c0.6,0.3,1.2,0.4,1.9,0.6c0.7,0.1,1.3,0.2,2,0.2c0.7,0,1.3-0.1,1.9-0.2
		c0.6-0.1,1.3-0.3,1.9-0.6c0.6-0.3,1.2-0.6,1.7-0.9c0.6-0.4,1.1-0.8,1.5-1.2c0.5-0.5,0.9-1,1.2-1.5c0.4-0.5,0.7-1.1,0.9-1.7
		c0.3-0.6,0.4-1.2,0.6-1.9s0.2-1.3,0.2-1.9c0-0.7-0.1-1.3-0.2-2C470.3,212.7,470.1,212.1,469.8,211.5z"/>
	<path d="M482.7,284c-2.7,4.8-1,10.9,3.9,13.6c6.4,3.5,13.3,5.3,20.3,5.3c7,0,14-1.8,20.3-5.3c4.8-2.7,6.6-8.8,3.9-13.6
		c-2.7-4.8-8.8-6.6-13.6-3.9c-6.6,3.7-14.6,3.7-21.2,0C491.4,277.5,485.3,279.2,482.7,284z"/>
	<path d="M535.6,44.3c-5.5-0.8-10.6,2.9-11.4,8.4c-0.8,5.5,2.9,10.6,8.4,11.4c45.9,6.9,65.3,51.1,65.6,51.8c1.6,3.8,5.3,6.1,9.2,6.1
		c1.3,0,2.6-0.3,3.8-0.8c5.1-2.1,7.5-8,5.4-13.1C615.7,105.8,593,52.8,535.6,44.3z"/>
	<path d="M496.2,39.7L496.2,39.7c-5.5,0-10,4.5-10,10c0,5.5,4.5,10,10,10s10-4.5,10-10C506.2,44.1,501.7,39.7,496.2,39.7z"/>
</g>
<g>
	<path d="M229.7,441h-36.4c-5.5,0-10,4.5-10,10c0,5.5,4.5,10,10,10h36.4c5.5,0,10-4.5,10-10C239.7,445.5,235.3,441,229.7,441z"/>
	<path d="M250.9,310.5c19.9-15.2,34-36,40.7-60.2c3.1-11.3,5.5-22.9,7-34.6h2.8c21.6,0,39.3-17.6,39.3-39.3
		c0-10.5-4.1-20.3-11.5-27.8c-7.4-7.4-17.3-11.5-27.8-11.5H301V60.4c0,0,0,0,0,0c0,0,0-0.1,0-0.1c-0.1-21.7-13.9-40.6-34.6-47.2
		C211.3-4.4,153.1-4.4,98,13.1c-0.1,0-0.1,0-0.2,0.1c-20.7,6.6-34.6,25.6-34.6,47.3v76.8h-0.4c-21.6,0-39.3,17.6-39.3,39.2
		c0,10.5,4.1,20.3,11.5,27.8c7.4,7.4,17.3,11.5,27.8,11.5h2.8c0,0.1,0,0.1,0,0.2c1.6,11.5,3.9,23.1,7,34.4c9.6,35,35,62.9,68.6,75.8
		v7.7L107.2,345c-0.2,0-0.5,0.1-0.7,0.1V342c0-5.5-4.5-10-10-10c-5.5,0-10,4.5-10,10v8.5c-9.4,4.1-17.9,10.1-24.9,17.8
		c-12.4,13.6-19.3,31.1-19.3,49.5V502c0,5.5,4.5,10,10,10h259.4c5.5,0,10-4.5,10-10v-84.2c0-37.8-29.2-69.6-66.7-73l-33.4-10.9v-7.2
		C232.2,322.7,242,317.4,250.9,310.5z M215.3,402.5c0,0.1-0.1,0.1-0.2,0.2c-0.2,0-0.2,0-0.3-0.1l-19.5-18.2l21.2-31.3l22.1,7.3
		L215.3,402.5z M147.6,402.5l-23.3-42.1l22.1-7.3l21.2,31.3l-19.6,18.2c-0.1,0.1-0.1,0.1-0.3,0.1
		C147.7,402.7,147.6,402.6,147.6,402.5z M94.1,413.6c0.8,0.2,1.6,0.3,2.4,0.3c0.8,0,1.7-0.1,2.4-0.3c5.6,1.1,9.9,6.1,9.9,12.1
		c0,6.8-5.5,12.3-12.3,12.3c-6.8,0-12.3-5.5-12.3-12.3C84.2,419.7,88.5,414.7,94.1,413.6z M201.7,332.1v7.2l-20.3,29.9l-20.3-29.9
		v-7.4c0.3,0.1,0.7,0.1,1,0.2c1.1,0.2,2.3,0.4,3.4,0.6c0.5,0.1,1,0.1,1.6,0.2c1.1,0.1,2.2,0.3,3.3,0.4c0.5,0.1,1,0.1,1.5,0.1
		c1.2,0.1,2.3,0.2,3.5,0.3c0.4,0,0.9,0.1,1.3,0.1c1.4,0.1,2.7,0.1,4.1,0.1c0.2,0,0.5,0,0.7,0c0.2,0,0.3,0,0.5,0c1.5,0,3,0,4.4-0.1
		c0,0,0.1,0,0.1,0c1.5-0.1,3.1-0.2,4.6-0.3c0.4,0,0.8-0.1,1.3-0.1c1.1-0.1,2.3-0.2,3.4-0.4c0.5-0.1,1-0.1,1.5-0.2
		c1.1-0.1,2.2-0.3,3.3-0.5C201,332.2,201.4,332.1,201.7,332.1z M83.6,194c-0.2-4.4-0.4-8.7-0.4-13.1v-48.1l6.4-0.9v60.7
		c0,1.8-1.4,3.2-3.2,3.2C85.2,195.8,84.1,195.1,83.6,194z M274.5,131.9l6.4,0.9v48.1c0,4.4-0.1,8.7-0.4,13.1c-0.5,1-1.6,1.8-2.8,1.8
		c-1.8,0-3.2-1.4-3.2-3.2V131.9z M301.4,157.3c5.2,0,10,2,13.6,5.6c3.6,3.6,5.6,8.5,5.6,13.6c0,10.6-8.6,19.3-19.3,19.3h-0.7
		c0.1-1.1,0.2-2.1,0.2-3.2v-35.3H301.4z M103.8,32.2c0.1,0,0.1,0,0.2-0.1c51.1-16.2,105.2-16.2,156.3,0c6.6,2.1,12.1,6.4,15.7,11.9
		c-21.3-5.9-43.3-6.4-44.5-6.4c-0.1,0-0.1,0-0.2,0c-5.4,0-9.9,4.4-10,9.8c-0.1,5.5,4.3,10.1,9.8,10.2c0.3,0,29.2,0.6,49.8,9.2v45.8
		l-22.4-3.1c-25-3.5-50.2-5.3-75.3-5.3c-0.4,0-0.8,0-1.1,0c0,0,0,0,0,0c-3,0-6.1,0-9.1,0.1c-0.1,0-0.3,0-0.4,0
		c-3.1,0.1-6.2,0.1-9.3,0.2c-0.1,0-0.2,0-0.3,0c-6.3,0.2-12.6,0.6-18.9,1c-0.1,0-0.1,0-0.2,0c-3,0.2-6.1,0.4-9.1,0.7
		c-0.2,0-0.3,0-0.5,0c-2.9,0.3-5.9,0.5-8.8,0.8c-0.2,0-0.5,0-0.7,0.1c-1.5,0.2-3.1,0.3-4.6,0.5c-4.8,0.5-9.6,1.1-14.5,1.8l-7.4,1
		c0,0,0,0,0,0l-15,2.1v-11.9c9.9-2.2,27.9-5.7,42.9-5.7c5.5,0,10-4.5,10-10c0-5.5-4.5-10-10-10c-14.8,0-31.7,2.9-42.9,5.2V60.4
		C83.2,47.5,91.5,36.2,103.8,32.2z M49.1,190.1c-3.6-3.6-5.6-8.5-5.6-13.6c0-10.6,8.6-19.2,19.3-19.2h0.4v35.3
		c0,1.1,0.1,2.2,0.2,3.2h-0.7C57.6,195.8,52.8,193.8,49.1,190.1z M91.9,245c-2.6-9.6-4.7-19.5-6.1-29.3c0.2,0,0.5,0,0.7,0
		c12.8,0,23.2-10.4,23.2-23.2v-63.4c24.1-3.3,48.3-5,72.5-5c24.2,0,48.4,1.7,72.4,5v63.4c0,12.8,10.4,23.2,23.2,23.2
		c0.2,0,0.5,0,0.7,0c-1.4,9.9-3.5,19.7-6.1,29.3c-5.5,19.9-17.1,37.1-33.5,49.6c-9,6.9-19.1,12-30,15.2c-8.7,2.6-17.7,3.9-26.8,3.9
		c-1.2,0-2.4,0-3.6-0.1c-2.4-0.1-4.7-0.3-7.1-0.5c-5.9-0.7-11.6-1.9-17.3-3.7c0,0,0,0,0,0C123.6,300,100.4,275.9,91.9,245z
		 M301.8,417.8V492h-25.7v-15.2c0-5.5-4.5-10-10-10c-5.5,0-10,4.5-10,10V492H109.6v-15.2c0-5.5-4.5-10-10-10s-10,4.5-10,10V492H62.4
		v-74.2c0-18.7,9.5-35.2,24.2-44.8v21.9c-12.9,4.2-22.3,16.4-22.3,30.7c0,17.8,14.5,32.3,32.3,32.3s32.3-14.5,32.3-32.3
		c0-14.3-9.4-26.5-22.3-30.7v-25.3l23.6,42.6c3,5.5,8.4,9.3,14.6,10.2c0.5,0.1,1,0.1,1.5,0.2c0.1,0,0.3,0,0.4,0c0.4,0,0.8,0,1.2,0
		c0.1,0,0.1,0,0.2,0c0,0,0.1,0,0.1,0c0.6,0,1.1,0,1.7-0.1c0.1,0,0.2,0,0.3,0c0.6-0.1,1.1-0.1,1.7-0.2c0,0,0.1,0,0.1,0
		c0.5-0.1,1.1-0.2,1.6-0.4c0.1,0,0.2,0,0.2-0.1c0.5-0.2,1.1-0.3,1.6-0.5c0.1,0,0.2-0.1,0.3-0.1c0.5-0.2,1.1-0.4,1.6-0.7c0,0,0,0,0,0
		c0.5-0.3,1-0.5,1.5-0.8c0.1-0.1,0.2-0.1,0.3-0.2c0.5-0.3,0.9-0.6,1.4-1c0.1-0.1,0.2-0.1,0.3-0.2c0.5-0.4,0.9-0.7,1.3-1.1l19.7-18.3
		l19.7,18.3c0.4,0.4,0.9,0.8,1.3,1.1c0.1,0.1,0.2,0.1,0.3,0.2c0.4,0.3,0.9,0.7,1.4,0.9c0.1,0.1,0.2,0.1,0.3,0.2
		c0.5,0.3,0.9,0.6,1.4,0.8c0,0,0.1,0,0.1,0c0.5,0.3,1,0.5,1.5,0.7c0.1,0,0.2,0.1,0.3,0.1c0.5,0.2,1,0.4,1.5,0.5
		c0.1,0,0.2,0.1,0.3,0.1c0.5,0.1,1,0.3,1.5,0.4c0.1,0,0.1,0,0.2,0c0.5,0.1,1.1,0.2,1.6,0.2c0.1,0,0.2,0,0.4,0c0.5,0,1.1,0.1,1.6,0.1
		c0,0,0.1,0,0.1,0c0.1,0,0.2,0,0.3,0c0.4,0,0.8,0,1.1,0c0.1,0,0.3,0,0.4,0c0.5,0,1-0.1,1.5-0.2c6.2-1,11.5-4.7,14.6-10.2l25.8-46.8
		C283.3,370.3,301.8,392.1,301.8,417.8z"/>
	<path d="M163,161.8c0-5.5-4.5-10-10-10h-26.9c-5.5,0-10,4.5-10,10c0,5.5,4.5,10,10,10H153C158.5,171.8,163,167.4,163,161.8z"/>
	<path d="M211.1,171.8H238c5.5,0,10-4.5,10-10c0-5.5-4.5-10-10-10h-26.9c-5.5,0-10,4.5-10,10C201.1,167.4,205.6,171.8,211.1,171.8z"
		/>
	<path d="M150,197.3c0.6-0.4,1.1-0.8,1.5-1.2s0.9-1,1.3-1.5c0.4-0.5,0.7-1.1,0.9-1.7c0.3-0.6,0.4-1.2,0.6-1.9c0.1-0.6,0.2-1.3,0.2-2
		c0-0.6-0.1-1.3-0.2-2c-0.1-0.6-0.3-1.3-0.6-1.9c-0.3-0.6-0.6-1.2-0.9-1.7c-0.4-0.6-0.8-1.1-1.3-1.5c-0.5-0.5-1-0.9-1.5-1.2
		c-0.5-0.4-1.1-0.7-1.7-0.9c-0.6-0.3-1.2-0.4-1.9-0.6c-1.3-0.3-2.6-0.3-3.9,0c-0.6,0.1-1.3,0.3-1.9,0.6c-0.6,0.3-1.2,0.6-1.7,0.9
		c-0.6,0.4-1.1,0.8-1.5,1.2c-0.5,0.5-0.9,1-1.2,1.5c-0.4,0.5-0.7,1.1-0.9,1.7c-0.3,0.6-0.4,1.2-0.6,1.9c-0.1,0.6-0.2,1.3-0.2,2
		c0,0.7,0.1,1.3,0.2,2c0.1,0.6,0.3,1.3,0.6,1.9c0.3,0.6,0.6,1.2,0.9,1.7c0.4,0.6,0.8,1.1,1.2,1.5s1,0.9,1.5,1.2
		c0.5,0.4,1.1,0.7,1.7,0.9c0.6,0.3,1.2,0.4,1.9,0.6c0.6,0.1,1.3,0.2,1.9,0.2c0.7,0,1.3-0.1,2-0.2c0.6-0.1,1.3-0.3,1.9-0.6
		C148.9,197.9,149.5,197.6,150,197.3z"/>
	<path d="M228.9,185.1c-0.3-0.6-0.6-1.2-0.9-1.7c-0.4-0.6-0.8-1.1-1.2-1.5c-0.5-0.5-1-0.9-1.5-1.3c-0.5-0.4-1.1-0.7-1.7-0.9
		c-0.6-0.3-1.2-0.4-1.9-0.6c-1.3-0.3-2.6-0.3-3.9,0c-0.6,0.1-1.3,0.3-1.9,0.6c-0.6,0.3-1.2,0.6-1.7,0.9c-0.6,0.4-1.1,0.8-1.5,1.3
		c-0.5,0.5-0.9,1-1.3,1.5c-0.4,0.5-0.7,1.1-0.9,1.7c-0.3,0.6-0.4,1.2-0.6,1.9c-0.1,0.6-0.2,1.3-0.2,2c0,0.7,0.1,1.3,0.2,2
		c0.1,0.6,0.3,1.3,0.6,1.9c0.3,0.6,0.6,1.2,0.9,1.7c0.4,0.6,0.8,1.1,1.3,1.5s1,0.9,1.5,1.2c0.5,0.4,1.1,0.7,1.7,0.9
		c0.6,0.3,1.2,0.4,1.9,0.6c0.6,0.1,1.3,0.2,2,0.2c0.6,0,1.3-0.1,1.9-0.2c0.6-0.1,1.3-0.3,1.9-0.6c0.6-0.3,1.2-0.6,1.7-0.9
		c0.6-0.4,1.1-0.8,1.5-1.2s0.9-1,1.2-1.5c0.4-0.5,0.7-1.1,0.9-1.7c0.3-0.6,0.4-1.2,0.6-1.9c0.1-0.6,0.2-1.3,0.2-2
		c0-0.6-0.1-1.3-0.2-2C229.3,186.4,229.2,185.7,228.9,185.1z"/>
	<path d="M182.1,289.5c10.4,0,20.7-2.5,30.1-7.6c4.9-2.6,6.7-8.7,4.1-13.5c-2.6-4.9-8.7-6.7-13.5-4.1c-13,6.9-28.5,6.9-41.4,0
		c-4.9-2.6-10.9-0.8-13.5,4.1c-2.6,4.9-0.8,10.9,4.1,13.5C161.4,287,171.7,289.5,182.1,289.5z"/>
	<path d="M161.3,73.2h5.6v5.6c0,5.5,4.5,10,10,10s10-4.5,10-10v-5.6h5.6c5.5,0,10-4.5,10-10c0-5.5-4.5-10-10-10h-5.6v-5.6
		c0-5.5-4.5-10-10-10s-10,4.5-10,10v5.6h-5.6c-5.5,0-10,4.5-10,10C151.3,68.8,155.7,73.2,161.3,73.2z"/>
</g>
</svg>
