<?xml version="1.0" encoding="utf-8"?>
<!-- Generator: Adobe Illustrator 16.0.0, SVG Export Plug-In . SVG Version: 6.00 Build 0)  -->
<!DOCTYPE svg PUBLIC "-//W3C//DTD SVG 1.1//EN" "http://www.w3.org/Graphics/SVG/1.1/DTD/svg11.dtd">
<svg version="1.1" id="Layer_1" xmlns="http://www.w3.org/2000/svg" xmlns:xlink="http://www.w3.org/1999/xlink" x="0px" y="0px"
	 width="543.694px" height="118.782px" viewBox="0 0 543.694 118.782" enable-background="new 0 0 543.694 118.782"
	 xml:space="preserve">
<path fill="#23C5D9" d="M51.147,101.958c-1.025,0-1.875-0.805-1.919-1.835c-0.06-1.465-0.601-36.149,76.402-64.934
	c0.11-0.05,20.711-9.189,26.846-26.611c0.344-0.995,1.419-1.53,2.449-1.169c1,0.349,1.525,1.444,1.17,2.449
	c-6.694,19.017-28.12,28.496-29.031,28.89C52.947,66.459,53.058,99.644,53.067,99.974c0.03,1.055-0.795,1.944-1.85,1.984H51.147z"/>
<path fill="#23C5D9" d="M55.774,18.632c-0.535,4.204-2.623,7.401-4.665,7.142c-2.042-0.26-3.263-3.878-2.729-8.082
	c0.535-4.205,2.623-7.402,4.665-7.143C55.087,10.809,56.309,14.428,55.774,18.632"/>
<path fill="#343844" d="M153.868,42.683c-0.318-0.84-0.663-1.565-0.869-2.329c-1.023-3.806-1.996-7.627-3.017-11.434
	c-0.4-1.49-0.881-2.959-1.327-4.437c-0.027-0.091-0.066-0.178-0.097-0.259c-0.051-0.001-0.091-0.013-0.101,0
	c-1.993,2.37-4.384,4.299-6.85,6.141c-1.489,1.113-2.964,2.252-4.511,3.278c-0.794,0.525-1.72,0.864-2.612,1.221
	c-0.922,0.369-1.876,0.368-2.84,0.086c-1.851-0.542-3.573-1.386-5.269-2.277c-1.414-0.743-2.781-1.573-4.163-2.376
	c-0.247-0.144-0.462-0.343-0.719-0.537c0.617-0.878,1.417-1.499,2.43-1.696c0.964-0.189,1.964-0.253,2.949-0.261
	c1.1-0.01,2.202,0.103,3.302,0.166c2.132,0.123,3.912-0.577,5.328-2.208c1.237-1.426,2.485-2.845,3.781-4.217
	c4.392-4.65,8.797-9.286,13.218-13.907c1.542-1.613,3.098-3.217,4.732-4.734c1.353-1.257,2.928-2.203,4.752-2.664
	c1.543-0.389,3.063-0.3,4.551,0.251c0.145,0.054,0.282,0.203,0.362,0.343c0.454,0.793,0.414,1.608,0.15,2.466
	c-0.494,1.601-1.307,3.025-2.433,4.234c-1.427,1.531-2.96,2.962-4.427,4.457c-0.925,0.943-1.819,1.92-2.71,2.897
	c-0.114,0.125-0.189,0.341-0.186,0.513c0.1,5.926,0.204,11.851,0.329,17.776c0.023,1.1,0.145,2.199,0.209,3.299
	c0.023,0.385,0.015,0.772,0.009,1.157c-0.014,0.906-0.284,1.741-0.937,2.364C155.93,40.924,154.892,41.783,153.868,42.683"/>
<path fill="#343844" d="M128.502,16.877c0.873-2.136,2.378-3.4,4.45-3.902c1.248-0.303,2.552-0.479,3.836-0.511
	c2.681-0.067,5.364-0.002,8.064,0.009c-0.223,0.277-0.451,0.613-0.729,0.902c-1.807,1.873-3.622,3.738-5.445,5.595
	c-0.092,0.094-0.296,0.152-0.426,0.125c-2.118-0.439-4.235-0.881-6.345-1.354C130.782,17.489,129.67,17.176,128.502,16.877"/>
<path fill="#23C5D9" d="M54.119,94.436c0,0-2.323,6.529,3.782,8.76l-1.55,1.486l-6.322-3.083l3.133-7.163H54.119z"/>
<path fill="#23C5D9" d="M54.517,101.425c0,0,3.302,4.704,12.203-1.635l-1.225,3.077l-4.877,2.03h-3.544l-4.125-2.554L54.517,101.425
	z"/>
<path fill="#343844" d="M153.167,54.255c0.65,0.69,0.976,1.605,0.976,2.748v34.684c0,1.143-0.336,2.068-1.005,2.777
	c-0.67,0.709-1.536,1.063-2.6,1.063c-1.262,0-2.226-0.452-2.895-1.359l-21.567-28.065v25.584c0,1.143-0.315,2.068-0.945,2.777
	c-0.631,0.709-1.498,1.063-2.6,1.063c-1.103,0-1.97-0.354-2.6-1.063c-0.63-0.709-0.946-1.635-0.946-2.777V57.003
	c0-1.143,0.335-2.058,1.005-2.748c0.669-0.688,1.556-1.034,2.659-1.034c1.22,0,2.165,0.453,2.836,1.359l21.507,27.948V57.003
	c0-1.143,0.325-2.058,0.976-2.748c0.649-0.688,1.507-1.034,2.57-1.034C151.641,53.221,152.518,53.567,153.167,54.255"/>
<path fill="#343844" d="M186.964,88.023c0.413,0.512,0.62,1.202,0.62,2.067c0,1.222-0.729,2.246-2.185,3.073
	c-1.34,0.748-2.857,1.351-4.55,1.802c-1.694,0.452-3.31,0.68-4.846,0.68c-4.648,0-8.331-1.338-11.049-4.019
	c-2.717-2.678-4.077-6.341-4.077-10.988c0-2.956,0.591-5.575,1.773-7.859c1.181-2.284,2.845-4.056,4.993-5.318
	c2.146-1.26,4.579-1.891,7.297-1.891c2.599,0,4.864,0.571,6.795,1.714c1.929,1.143,3.427,2.757,4.491,4.845
	c1.063,2.088,1.595,4.551,1.595,7.387c0,1.693-0.748,2.541-2.246,2.541h-17.43c0.236,2.717,1.005,4.717,2.304,5.996
	c1.3,1.28,3.191,1.921,5.672,1.921c1.261,0,2.373-0.157,3.339-0.474c0.965-0.314,2.058-0.747,3.28-1.3
	c1.181-0.63,2.047-0.945,2.599-0.945C186.008,87.255,186.55,87.512,186.964,88.023 M170.302,72.661
	c-1.202,1.261-1.921,3.072-2.157,5.437h13.353c-0.079-2.403-0.67-4.226-1.772-5.467c-1.104-1.24-2.64-1.861-4.609-1.861
	C173.109,70.77,171.503,71.4,170.302,72.661"/>
<path fill="#343844" d="M194.319,59.336c-0.789-0.728-1.181-1.684-1.181-2.866c0-1.181,0.392-2.127,1.181-2.836
	c0.788-0.709,1.851-1.064,3.191-1.064c1.3,0,2.353,0.355,3.161,1.064c0.807,0.709,1.211,1.655,1.211,2.836
	c0,1.182-0.394,2.138-1.182,2.866c-0.788,0.73-1.851,1.093-3.19,1.093C196.17,60.429,195.107,60.066,194.319,59.336 M194.881,94.611
	c-0.69-0.61-1.034-1.486-1.034-2.629V69.174c0-1.142,0.344-2.008,1.034-2.599c0.688-0.591,1.565-0.887,2.629-0.887
	c1.063,0,1.95,0.296,2.659,0.887s1.064,1.457,1.064,2.599v22.809c0,1.143-0.355,2.019-1.064,2.629s-1.596,0.916-2.659,0.916
	C196.446,95.527,195.569,95.222,194.881,94.611"/>
<path fill="#343844" d="M235.975,66.634c0.67,0.631,1.005,1.478,1.005,2.541v23.339c0,4.529-1.261,7.956-3.782,10.28
	s-6.244,3.486-11.168,3.486c-4.294,0-7.878-0.807-10.753-2.422c-1.458-0.867-2.186-1.912-2.186-3.133
	c0-0.866,0.207-1.556,0.62-2.066c0.414-0.513,0.955-0.769,1.625-0.769c0.355,0,0.787,0.089,1.3,0.266
	c0.512,0.178,1.043,0.385,1.596,0.621c1.418,0.591,2.688,1.042,3.81,1.358c1.123,0.314,2.413,0.473,3.87,0.473
	c5.16,0,7.74-2.521,7.74-7.563v-3.782c-0.866,1.616-2.126,2.866-3.781,3.752c-1.654,0.887-3.545,1.33-5.672,1.33
	c-2.521,0-4.756-0.601-6.707-1.803c-1.949-1.201-3.476-2.885-4.579-5.052c-1.102-2.166-1.654-4.668-1.654-7.504
	s0.541-5.348,1.625-7.532c1.083-2.188,2.609-3.881,4.579-5.082c1.97-1.202,4.215-1.803,6.736-1.803c2.127,0,4.018,0.443,5.672,1.329
	c1.655,0.887,2.915,2.138,3.781,3.752v-1.536c0-1.023,0.335-1.851,1.005-2.481c0.669-0.63,1.556-0.945,2.66-0.945
	C234.418,65.688,235.305,66.004,235.975,66.634 M227.673,86.31c1.319-1.536,1.979-3.643,1.979-6.322c0-2.718-0.66-4.845-1.979-6.381
	c-1.319-1.537-3.161-2.305-5.524-2.305c-2.325,0-4.157,0.768-5.496,2.305c-1.338,1.536-2.008,3.663-2.008,6.381
	c0,2.68,0.67,4.786,2.008,6.322c1.339,1.536,3.171,2.305,5.496,2.305C224.512,88.614,226.354,87.846,227.673,86.31"/>
<path fill="#343844" d="M271.664,77.446v14.536c0,1.103-0.325,1.97-0.975,2.6c-0.65,0.629-1.546,0.945-2.688,0.945
	c-1.144,0-2.049-0.316-2.719-0.945c-0.67-0.63-1.004-1.497-1.004-2.6V77.446c0-2.087-0.424-3.613-1.27-4.579
	c-0.848-0.965-2.177-1.447-3.989-1.447c-2.126,0-3.831,0.67-5.111,2.009c-1.28,1.34-1.92,3.132-1.92,5.377v13.177
	c0,1.103-0.335,1.97-1.005,2.6c-0.67,0.629-1.575,0.945-2.717,0.945c-1.143,0-2.039-0.316-2.689-0.945
	c-0.649-0.63-0.975-1.497-0.975-2.6V56.648c0-1.024,0.344-1.851,1.035-2.482c0.688-0.63,1.585-0.945,2.688-0.945
	c1.102,0,1.988,0.295,2.658,0.886c0.67,0.591,1.005,1.399,1.005,2.422v13.768c0.985-1.536,2.294-2.707,3.929-3.516
	c1.635-0.807,3.496-1.211,5.584-1.211C268.274,65.57,271.664,69.529,271.664,77.446"/>
<path fill="#343844" d="M302.448,67.402c1.929,1.221,3.436,2.954,4.52,5.199c1.083,2.245,1.625,4.865,1.625,7.858
	s-0.542,5.643-1.625,7.947c-1.084,2.305-2.6,4.087-4.55,5.348c-1.949,1.261-4.165,1.891-6.646,1.891
	c-2.089,0-3.95-0.453-5.584-1.359c-1.635-0.905-2.886-2.167-3.752-3.781v1.478c0,1.063-0.335,1.91-1.005,2.54
	c-0.67,0.631-1.557,0.945-2.658,0.945c-1.104,0-1.979-0.314-2.63-0.945c-0.649-0.63-0.975-1.477-0.975-2.54V56.647
	c0-1.024,0.344-1.851,1.034-2.481c0.688-0.63,1.585-0.945,2.688-0.945c1.102,0,1.988,0.295,2.658,0.886
	c0.67,0.591,1.005,1.398,1.005,2.422v13.945c0.866-1.575,2.106-2.786,3.724-3.634c1.613-0.847,3.445-1.271,5.494-1.271
	C298.291,65.57,300.517,66.182,302.448,67.402 M299.256,87.433c1.3-1.654,1.95-3.979,1.95-6.973c0-2.954-0.641-5.219-1.92-6.795
	c-1.281-1.575-3.103-2.363-5.466-2.363s-4.186,0.798-5.466,2.393c-1.28,1.596-1.92,3.891-1.92,6.884c0,2.994,0.64,5.299,1.92,6.913
	c1.28,1.616,3.103,2.423,5.466,2.423C296.144,89.914,297.957,89.087,299.256,87.433"/>
<path fill="#343844" d="M320.084,93.813c-2.226-1.221-3.949-2.974-5.17-5.259c-1.222-2.284-1.832-4.941-1.832-7.977
	c0-3.032,0.61-5.682,1.832-7.947c1.221-2.265,2.944-4.008,5.17-5.229s4.815-1.832,7.77-1.832c2.956,0,5.544,0.611,7.771,1.832
	c2.225,1.221,3.938,2.964,5.141,5.229c1.2,2.266,1.802,4.915,1.802,7.947c0,3.035-0.602,5.692-1.802,7.977
	c-1.202,2.285-2.916,4.038-5.141,5.259c-2.227,1.222-4.814,1.832-7.771,1.832C324.9,95.646,322.31,95.035,320.084,93.813
	 M333.291,87.551c1.26-1.575,1.891-3.9,1.891-6.973c0-3.032-0.631-5.348-1.891-6.942c-1.262-1.596-3.073-2.394-5.437-2.394
	s-4.186,0.798-5.465,2.394c-1.281,1.595-1.921,3.91-1.921,6.942c0,3.072,0.63,5.397,1.891,6.973s3.073,2.363,5.437,2.363
	C330.198,89.914,332.029,89.126,333.291,87.551"/>
<path fill="#343844" d="M367.206,66.339c0.591,0.512,0.887,1.28,0.887,2.304c0,1.063-0.257,1.853-0.769,2.363
	c-0.512,0.513-1.438,0.848-2.776,1.005l-1.773,0.177c-2.324,0.237-4.027,1.025-5.11,2.364c-1.084,1.339-1.625,3.013-1.625,5.022
	v12.408c0,1.143-0.354,2.019-1.063,2.629s-1.596,0.916-2.659,0.916s-1.94-0.306-2.629-0.916c-0.69-0.61-1.034-1.486-1.034-2.629
	V69.115c0-1.103,0.344-1.949,1.034-2.54c0.688-0.59,1.545-0.887,2.57-0.887c1.023,0,1.851,0.286,2.481,0.856
	c0.63,0.572,0.945,1.389,0.945,2.452v2.363c0.748-1.732,1.861-3.072,3.338-4.018c1.478-0.945,3.122-1.477,4.934-1.595l0.828-0.06
	C365.807,65.61,366.615,65.827,367.206,66.339"/>
<path fill="#23C5D9" d="M407.208,54.255c0.669,0.69,1.004,1.605,1.004,2.748v34.684c0,1.143-0.345,2.068-1.034,2.777
	s-1.586,1.063-2.688,1.063c-1.143,0-2.048-0.354-2.719-1.063c-0.669-0.709-1.003-1.635-1.003-2.777V77.092h-21.331v14.595
	c0,1.143-0.345,2.068-1.033,2.777c-0.69,0.709-1.605,1.063-2.748,1.063c-1.104,0-2-0.354-2.688-1.063
	c-0.689-0.709-1.034-1.635-1.034-2.777V57.003c0-1.143,0.335-2.058,1.004-2.748c0.669-0.688,1.576-1.034,2.719-1.034
	s2.058,0.346,2.748,1.034c0.688,0.69,1.033,1.605,1.033,2.748v13.944h21.331V57.003c0-1.143,0.334-2.058,1.003-2.748
	c0.671-0.688,1.576-1.034,2.719-1.034S406.537,53.567,407.208,54.255"/>
<path fill="#23C5D9" d="M441.034,88.023c0.413,0.512,0.62,1.202,0.62,2.067c0,1.222-0.729,2.246-2.186,3.073
	c-1.34,0.748-2.856,1.351-4.55,1.802c-1.694,0.452-3.31,0.68-4.846,0.68c-4.648,0-8.331-1.338-11.049-4.019
	c-2.718-2.678-4.077-6.341-4.077-10.988c0-2.956,0.591-5.575,1.772-7.859s2.846-4.056,4.993-5.318
	c2.146-1.26,4.579-1.891,7.297-1.891c2.6,0,4.864,0.571,6.795,1.714c1.93,1.143,3.428,2.757,4.491,4.845s1.595,4.551,1.595,7.387
	c0,1.693-0.748,2.541-2.246,2.541h-17.43c0.236,2.717,1.005,4.717,2.305,5.996c1.3,1.28,3.19,1.921,5.672,1.921
	c1.261,0,2.373-0.157,3.339-0.474c0.965-0.314,2.058-0.747,3.28-1.3c1.181-0.63,2.047-0.945,2.599-0.945
	C440.078,87.255,440.62,87.512,441.034,88.023 M424.372,72.661c-1.202,1.261-1.921,3.072-2.157,5.437h13.354
	c-0.079-2.403-0.67-4.226-1.772-5.467c-1.104-1.24-2.64-1.861-4.608-1.861C427.178,70.77,425.573,71.4,424.372,72.661"/>
<path fill="#23C5D9" d="M469.394,68.554c1.95,1.99,2.925,5.014,2.925,9.07v14.417c0,1.063-0.315,1.901-0.945,2.511
	c-0.631,0.611-1.497,0.916-2.6,0.916c-1.024,0-1.861-0.314-2.512-0.945c-0.649-0.63-0.975-1.457-0.975-2.481v-1.299
	c-0.67,1.535-1.724,2.737-3.161,3.604c-1.438,0.865-3.102,1.3-4.993,1.3c-1.93,0-3.685-0.395-5.258-1.182
	c-1.576-0.788-2.817-1.871-3.723-3.25c-0.907-1.379-1.359-2.915-1.359-4.608c0-2.128,0.541-3.802,1.625-5.022
	c1.083-1.221,2.846-2.107,5.288-2.659c2.442-0.551,5.811-0.827,10.104-0.827h1.477v-1.359c0-1.93-0.413-3.338-1.24-4.225
	c-0.828-0.886-2.167-1.329-4.019-1.329c-1.143,0-2.304,0.168-3.486,0.502c-1.182,0.335-2.58,0.818-4.194,1.448
	c-1.026,0.512-1.774,0.768-2.246,0.768c-0.709,0-1.29-0.256-1.742-0.768c-0.455-0.512-0.68-1.182-0.68-2.01
	c0-0.669,0.167-1.25,0.502-1.742c0.334-0.492,0.896-0.955,1.683-1.388c1.38-0.749,3.024-1.34,4.936-1.773
	c1.91-0.434,3.79-0.65,5.643-0.65C464.46,65.57,467.445,66.565,469.394,68.554 M463.426,88.348c1.241-1.318,1.861-3.021,1.861-5.11
	v-1.241h-1.063c-2.64,0-4.688,0.118-6.145,0.354c-1.458,0.236-2.502,0.65-3.133,1.241c-0.63,0.591-0.944,1.398-0.944,2.423
	c0,1.261,0.443,2.295,1.329,3.103c0.887,0.807,1.979,1.21,3.279,1.21C460.581,90.327,462.186,89.668,463.426,88.348"/>
<path fill="#23C5D9" d="M480.857,94.611c-0.689-0.61-1.034-1.486-1.034-2.629V56.707c0-1.142,0.345-2.009,1.034-2.6
	c0.688-0.591,1.565-0.886,2.629-0.886s1.95,0.295,2.659,0.886c0.709,0.591,1.063,1.458,1.063,2.6v35.275
	c0,1.143-0.354,2.019-1.063,2.629s-1.596,0.916-2.659,0.916S481.545,95.222,480.857,94.611"/>
<path fill="#23C5D9" d="M512.792,92.691c0,0.945-0.384,1.664-1.152,2.156c-0.768,0.492-1.861,0.699-3.279,0.62l-1.595-0.118
	c-6.618-0.473-9.927-4.018-9.927-10.637v-12.88h-2.954c-1.063,0-1.882-0.236-2.452-0.709s-0.857-1.161-0.857-2.067
	s0.287-1.596,0.857-2.068s1.389-0.709,2.452-0.709h2.954v-5.436c0-1.064,0.334-1.91,1.005-2.541c0.669-0.63,1.574-0.945,2.718-0.945
	c1.103,0,1.988,0.315,2.658,0.945c0.67,0.631,1.005,1.477,1.005,2.541v5.436h5.022c1.063,0,1.881,0.236,2.452,0.709
	c0.57,0.473,0.856,1.162,0.856,2.068s-0.286,1.595-0.856,2.067c-0.571,0.473-1.389,0.709-2.452,0.709h-5.022v13.413
	c0,2.916,1.339,4.471,4.018,4.668l1.596,0.118C511.807,90.15,512.792,91.036,512.792,92.691"/>
<path fill="#23C5D9" d="M543.694,77.446v14.536c0,1.103-0.325,1.97-0.975,2.6c-0.65,0.629-1.547,0.945-2.688,0.945
	c-1.144,0-2.049-0.316-2.719-0.945c-0.67-0.63-1.004-1.497-1.004-2.6V77.446c0-2.087-0.424-3.613-1.271-4.579
	c-0.848-0.965-2.177-1.447-3.989-1.447c-2.126,0-3.83,0.67-5.11,2.009c-1.28,1.34-1.92,3.132-1.92,5.377v13.177
	c0,1.103-0.335,1.97-1.005,2.6c-0.67,0.629-1.575,0.945-2.718,0.945s-2.038-0.316-2.688-0.945c-0.649-0.63-0.975-1.497-0.975-2.6
	V56.648c0-1.024,0.344-1.851,1.034-2.482c0.688-0.63,1.585-0.945,2.688-0.945c1.102,0,1.988,0.295,2.658,0.886
	c0.67,0.591,1.005,1.399,1.005,2.422v13.768c0.984-1.536,2.294-2.707,3.929-3.516c1.635-0.807,3.496-1.211,5.584-1.211
	C540.305,65.57,543.694,69.529,543.694,77.446"/>
<path fill="#343844" d="M266.514,118.879c0,0.192-0.073,0.354-0.221,0.481c-0.148,0.129-0.324,0.193-0.529,0.193
	c-0.322,0-0.546-0.154-0.675-0.463l-1.367-3.121h-7.265l-1.387,3.121c-0.129,0.309-0.353,0.463-0.675,0.463
	c-0.205,0-0.384-0.067-0.539-0.203c-0.154-0.135-0.231-0.298-0.231-0.491c0-0.103,0.025-0.205,0.077-0.308l5.511-12.254
	c0.077-0.18,0.192-0.315,0.346-0.405c0.155-0.09,0.322-0.135,0.501-0.135c0.193,0,0.367,0.048,0.521,0.145
	c0.153,0.097,0.269,0.229,0.347,0.396l5.509,12.254C266.489,118.654,266.514,118.764,266.514,118.879 M257.035,114.659h6.108
	l-3.063-6.917L257.035,114.659z"/>
<path fill="#343844" d="M286.349,105.999c0.135,0.146,0.202,0.344,0.202,0.588v12.195c0,0.231-0.063,0.418-0.192,0.56
	c-0.128,0.141-0.308,0.212-0.539,0.212s-0.406-0.071-0.521-0.212c-0.115-0.142-0.174-0.328-0.174-0.56v-9.846l-4.181,8.016
	c-0.18,0.373-0.443,0.559-0.79,0.559c-0.334,0-0.597-0.186-0.79-0.559l-4.201-7.919v9.749c0,0.231-0.06,0.418-0.182,0.56
	c-0.122,0.141-0.299,0.212-0.53,0.212c-0.232,0-0.412-0.071-0.54-0.212c-0.128-0.142-0.193-0.328-0.193-0.56v-12.195
	c0-0.244,0.071-0.441,0.213-0.588c0.141-0.147,0.333-0.222,0.577-0.222c0.321,0,0.578,0.187,0.772,0.559l4.893,9.383l4.836-9.383
	c0.103-0.205,0.215-0.35,0.337-0.434c0.122-0.083,0.267-0.125,0.434-0.125C286.025,105.777,286.214,105.852,286.349,105.999"/>
<path fill="#343844" d="M290.144,119.245c-0.146-0.142-0.222-0.327-0.222-0.559v-12.042c0-0.231,0.075-0.418,0.222-0.559
	c0.147-0.142,0.344-0.212,0.588-0.212h7.206c0.231,0,0.411,0.058,0.539,0.173c0.129,0.115,0.193,0.276,0.193,0.481
	c0,0.206-0.064,0.366-0.193,0.482c-0.128,0.115-0.308,0.172-0.539,0.172h-6.454v4.722h6.068c0.231,0,0.411,0.058,0.54,0.174
	c0.128,0.115,0.192,0.276,0.192,0.481s-0.064,0.366-0.192,0.481c-0.129,0.115-0.309,0.174-0.54,0.174h-6.068v4.932h6.454
	c0.231,0,0.411,0.055,0.539,0.164c0.129,0.109,0.193,0.273,0.193,0.491c0,0.206-0.064,0.366-0.193,0.481
	c-0.128,0.116-0.308,0.174-0.539,0.174h-7.206C290.488,119.457,290.292,119.387,290.144,119.245"/>
<path fill="#343844" d="M301.357,119.245c-0.146-0.142-0.222-0.327-0.222-0.559v-12.042c0-0.231,0.075-0.418,0.222-0.559
	c0.147-0.142,0.344-0.212,0.588-0.212h3.757c2.171,0,3.851,0.587,5.039,1.763c1.188,1.175,1.782,2.849,1.782,5.019
	c0,2.171-0.598,3.848-1.792,5.029s-2.871,1.772-5.029,1.772h-3.757C301.701,119.457,301.504,119.387,301.357,119.245
	 M305.606,118.108c3.521,0,5.279-1.817,5.279-5.453c0-3.622-1.759-5.433-5.279-5.433h-2.891v10.886H305.606z"/>
<path fill="#343844" d="M315.586,119.332c-0.142-0.147-0.213-0.344-0.213-0.588v-12.157c0-0.244,0.071-0.44,0.213-0.588
	c0.141-0.147,0.333-0.222,0.577-0.222s0.437,0.074,0.578,0.222s0.212,0.344,0.212,0.588v12.157c0,0.244-0.07,0.44-0.212,0.588
	c-0.142,0.146-0.334,0.222-0.578,0.222S315.727,119.479,315.586,119.332"/>
<path fill="#343844" d="M322.734,118.773c-0.938-0.561-1.66-1.361-2.167-2.409c-0.508-1.046-0.761-2.283-0.761-3.709
	c0-1.412,0.253-2.643,0.761-3.689c0.507-1.047,1.229-1.85,2.167-2.408c0.937-0.559,2.049-0.838,3.334-0.838
	c0.86,0,1.673,0.138,2.438,0.414c0.764,0.276,1.429,0.671,1.994,1.185c0.205,0.193,0.308,0.418,0.308,0.675
	c0,0.18-0.052,0.337-0.154,0.472s-0.225,0.202-0.366,0.202c-0.153,0-0.34-0.07-0.559-0.212c-0.654-0.514-1.249-0.873-1.782-1.079
	s-1.146-0.308-1.84-0.308c-1.49,0-2.637,0.484-3.439,1.454c-0.803,0.971-1.204,2.348-1.204,4.133c0,1.799,0.401,3.182,1.204,4.152
	c0.803,0.97,1.949,1.455,3.439,1.455c0.681,0,1.291-0.103,1.83-0.309c0.54-0.205,1.138-0.565,1.792-1.079
	c0.219-0.141,0.405-0.212,0.559-0.212c0.142,0,0.264,0.064,0.366,0.192c0.103,0.129,0.154,0.289,0.154,0.481
	c0,0.258-0.103,0.482-0.308,0.675c-0.565,0.514-1.23,0.908-1.994,1.186c-0.765,0.275-1.577,0.414-2.438,0.414
	C324.783,119.611,323.67,119.332,322.734,118.773"/>
<path fill="#343844" d="M344.794,118.879c0,0.192-0.072,0.354-0.221,0.481c-0.147,0.129-0.324,0.193-0.529,0.193
	c-0.321,0-0.546-0.154-0.675-0.463l-1.367-3.121h-7.265l-1.387,3.121c-0.129,0.309-0.354,0.463-0.675,0.463
	c-0.205,0-0.385-0.067-0.539-0.203c-0.154-0.135-0.231-0.298-0.231-0.491c0-0.103,0.025-0.205,0.077-0.308l5.511-12.254
	c0.077-0.18,0.192-0.315,0.347-0.405s0.321-0.135,0.501-0.135c0.192,0,0.366,0.048,0.521,0.145c0.153,0.097,0.269,0.229,0.347,0.396
	l5.51,12.254C344.77,118.654,344.794,118.764,344.794,118.879 M335.316,114.659h6.108l-3.063-6.917L335.316,114.659z"/>
<path fill="#343844" d="M347.251,119.255c-0.147-0.135-0.222-0.312-0.222-0.53v-12.138c0-0.244,0.071-0.44,0.213-0.588
	c0.141-0.147,0.333-0.222,0.577-0.222c0.243,0,0.437,0.074,0.578,0.222s0.212,0.344,0.212,0.588v11.522h6.224
	c0.23,0,0.411,0.057,0.539,0.172c0.129,0.116,0.193,0.283,0.193,0.501c0,0.219-0.064,0.386-0.193,0.501
	c-0.128,0.116-0.309,0.174-0.539,0.174h-7.032C347.583,119.457,347.398,119.39,347.251,119.255"/>
<path fill="#343844" d="M365.902,119.332c-0.146-0.147-0.221-0.344-0.221-0.588v-11.521h-4.143c-0.231,0-0.411-0.059-0.54-0.174
	c-0.128-0.115-0.192-0.282-0.192-0.501c0-0.218,0.064-0.386,0.192-0.501c0.129-0.115,0.309-0.173,0.54-0.173h9.885
	c0.23,0,0.41,0.058,0.538,0.173s0.193,0.283,0.193,0.501c0,0.219-0.065,0.386-0.193,0.501s-0.308,0.174-0.538,0.174h-4.144v11.521
	c0,0.244-0.07,0.44-0.212,0.588c-0.142,0.146-0.334,0.222-0.578,0.222S366.049,119.479,365.902,119.332"/>
<path fill="#343844" d="M375.478,118.764c-0.932-0.565-1.647-1.368-2.148-2.408c-0.501-1.041-0.751-2.268-0.751-3.681
	c0-1.426,0.247-2.662,0.741-3.709s1.207-1.85,2.139-2.408s2.033-0.838,3.305-0.838s2.373,0.279,3.304,0.838
	c0.932,0.559,1.645,1.361,2.139,2.408c0.495,1.047,0.742,2.277,0.742,3.689c0,1.413-0.25,2.644-0.751,3.69s-1.218,1.853-2.148,2.418
	c-0.932,0.564-2.027,0.848-3.285,0.848C377.504,119.611,376.409,119.328,375.478,118.764 M382.125,116.808
	c0.802-0.97,1.204-2.354,1.204-4.152s-0.398-3.179-1.195-4.142c-0.796-0.964-1.92-1.445-3.371-1.445
	c-1.439,0-2.56,0.484-3.362,1.454c-0.803,0.971-1.204,2.348-1.204,4.133c0,1.786,0.401,3.167,1.204,4.143
	c0.803,0.977,1.923,1.465,3.362,1.465C380.202,118.263,381.322,117.777,382.125,116.808"/>
<path fill="#343844" d="M389.071,118.224c-0.912-0.925-1.368-2.286-1.368-4.084v-7.553c0-0.244,0.07-0.44,0.212-0.588
	c0.141-0.147,0.334-0.222,0.578-0.222c0.231,0,0.417,0.074,0.558,0.222c0.143,0.147,0.213,0.344,0.213,0.588v7.688
	c0,1.323,0.324,2.318,0.973,2.986s1.603,1.002,2.861,1.002s2.209-0.334,2.852-1.002s0.964-1.663,0.964-2.986v-7.688
	c0-0.244,0.073-0.44,0.222-0.588c0.147-0.147,0.337-0.222,0.568-0.222c0.243,0,0.437,0.074,0.577,0.222
	c0.142,0.147,0.212,0.344,0.212,0.588v7.553c0,1.785-0.459,3.144-1.377,4.074c-0.919,0.932-2.258,1.397-4.018,1.397
	C391.325,119.611,389.982,119.148,389.071,118.224"/>
<path fill="#343844" d="M412.249,118.918c0,0.192-0.074,0.35-0.222,0.472s-0.317,0.183-0.512,0.183
	c-0.293,0-0.525-0.128-0.692-0.385l-2.582-4.085c-0.334-0.526-0.681-0.89-1.04-1.089c-0.359-0.198-0.848-0.298-1.464-0.298h-2.428
	v5.028c0,0.244-0.071,0.44-0.212,0.588c-0.142,0.147-0.328,0.222-0.56,0.222c-0.244,0-0.437-0.074-0.577-0.222
	c-0.142-0.147-0.213-0.344-0.213-0.588v-12.1c0-0.231,0.074-0.418,0.222-0.559c0.147-0.142,0.344-0.212,0.587-0.212h4.779
	c1.478,0,2.604,0.327,3.382,0.982c0.776,0.655,1.165,1.618,1.165,2.89c0,1.079-0.312,1.946-0.935,2.602s-1.512,1.053-2.668,1.194
	c0.32,0.103,0.608,0.27,0.867,0.501c0.257,0.231,0.514,0.553,0.771,0.963l2.196,3.469
	C412.204,118.616,412.249,118.764,412.249,118.918 M407.201,112.405c1.053,0,1.84-0.219,2.36-0.655s0.78-1.098,0.78-1.984
	c0-0.873-0.257-1.522-0.771-1.946c-0.515-0.424-1.304-0.636-2.37-0.636h-3.892v5.222H407.201z"/>
<path fill="#343844" d="M415.177,119.332c-0.142-0.147-0.213-0.344-0.213-0.588v-12.157c0-0.244,0.071-0.44,0.213-0.588
	c0.141-0.147,0.333-0.222,0.577-0.222s0.437,0.074,0.578,0.222s0.212,0.344,0.212,0.588v12.157c0,0.244-0.07,0.44-0.212,0.588
	c-0.142,0.146-0.334,0.222-0.578,0.222S415.318,119.479,415.177,119.332"/>
<path fill="#343844" d="M421.467,119.178c-0.88-0.289-1.583-0.678-2.109-1.166c-0.192-0.18-0.289-0.404-0.289-0.674
	c0-0.181,0.052-0.338,0.154-0.474c0.103-0.134,0.224-0.201,0.366-0.201c0.167,0,0.347,0.071,0.539,0.212
	c1.193,0.925,2.557,1.388,4.085,1.388c1.104,0,1.952-0.212,2.543-0.636s0.887-1.027,0.887-1.812c0-0.45-0.142-0.813-0.424-1.089
	c-0.283-0.275-0.655-0.497-1.118-0.664c-0.462-0.167-1.085-0.341-1.868-0.521c-1.054-0.244-1.917-0.501-2.592-0.771
	s-1.221-0.656-1.638-1.156c-0.418-0.501-0.626-1.156-0.626-1.965c0-0.771,0.208-1.455,0.626-2.053
	c0.417-0.597,1.002-1.06,1.753-1.387c0.752-0.328,1.608-0.491,2.572-0.491c0.899,0,1.737,0.138,2.515,0.414s1.429,0.671,1.956,1.185
	c0.205,0.206,0.308,0.431,0.308,0.675c0,0.18-0.051,0.337-0.154,0.472c-0.103,0.135-0.225,0.202-0.365,0.202
	c-0.142,0-0.328-0.07-0.56-0.212c-0.629-0.514-1.214-0.873-1.753-1.079c-0.539-0.205-1.188-0.308-1.946-0.308
	c-1.066,0-1.895,0.222-2.485,0.664c-0.591,0.443-0.886,1.063-0.886,1.859c0,0.682,0.26,1.191,0.78,1.532
	c0.52,0.341,1.319,0.639,2.398,0.896c1.169,0.283,2.087,0.543,2.755,0.78c0.668,0.238,1.224,0.595,1.667,1.069
	c0.443,0.476,0.665,1.111,0.665,1.908c0,0.758-0.209,1.426-0.627,2.004c-0.417,0.577-1.005,1.027-1.763,1.349
	s-1.625,0.481-2.601,0.481C423.269,119.611,422.347,119.467,421.467,119.178"/>
<path fill="#343844" d="M444.415,105.999c0.135,0.146,0.202,0.344,0.202,0.588v12.195c0,0.231-0.063,0.418-0.192,0.56
	c-0.128,0.141-0.308,0.212-0.539,0.212s-0.405-0.071-0.521-0.212c-0.115-0.142-0.174-0.328-0.174-0.56v-9.846l-4.181,8.016
	c-0.18,0.373-0.443,0.559-0.79,0.559c-0.334,0-0.597-0.186-0.79-0.559l-4.2-7.919v9.749c0,0.231-0.061,0.418-0.183,0.56
	c-0.122,0.141-0.299,0.212-0.53,0.212s-0.411-0.071-0.539-0.212c-0.129-0.142-0.193-0.328-0.193-0.56v-12.195
	c0-0.244,0.071-0.441,0.213-0.588c0.141-0.147,0.333-0.222,0.577-0.222c0.321,0,0.578,0.187,0.771,0.559l4.894,9.383l4.836-9.383
	c0.103-0.205,0.215-0.35,0.337-0.434c0.122-0.083,0.267-0.125,0.434-0.125C444.09,105.777,444.28,105.852,444.415,105.999"/>
<path fill="#343844" d="M455.386,118.773c-0.937-0.561-1.66-1.361-2.167-2.409c-0.508-1.046-0.761-2.283-0.761-3.709
	c0-1.412,0.253-2.643,0.761-3.689c0.507-1.047,1.23-1.85,2.167-2.408c0.938-0.559,2.049-0.838,3.334-0.838
	c0.86,0,1.673,0.138,2.438,0.414c0.764,0.276,1.429,0.671,1.994,1.185c0.205,0.193,0.308,0.418,0.308,0.675
	c0,0.18-0.052,0.337-0.154,0.472s-0.225,0.202-0.366,0.202c-0.153,0-0.34-0.07-0.559-0.212c-0.654-0.514-1.249-0.873-1.782-1.079
	s-1.146-0.308-1.84-0.308c-1.49,0-2.637,0.484-3.439,1.454c-0.803,0.971-1.204,2.348-1.204,4.133c0,1.799,0.401,3.182,1.204,4.152
	c0.803,0.97,1.949,1.455,3.439,1.455c0.681,0,1.291-0.103,1.83-0.309c0.54-0.205,1.138-0.565,1.792-1.079
	c0.219-0.141,0.405-0.212,0.559-0.212c0.142,0,0.264,0.064,0.366,0.192c0.103,0.129,0.154,0.289,0.154,0.481
	c0,0.258-0.103,0.482-0.308,0.675c-0.565,0.514-1.23,0.908-1.994,1.186c-0.765,0.275-1.577,0.414-2.438,0.414
	C457.435,119.611,456.324,119.332,455.386,118.773"/>
<path fill="#343844" d="M468.19,118.764c-0.932-0.565-1.647-1.368-2.148-2.408c-0.501-1.041-0.751-2.268-0.751-3.681
	c0-1.426,0.247-2.662,0.741-3.709c0.493-1.047,1.207-1.85,2.139-2.408s2.033-0.838,3.305-0.838s2.373,0.279,3.304,0.838
	c0.932,0.559,1.645,1.361,2.139,2.408c0.495,1.047,0.742,2.277,0.742,3.689c0,1.413-0.25,2.644-0.751,3.69s-1.218,1.853-2.148,2.418
	c-0.932,0.564-2.026,0.848-3.285,0.848S469.121,119.328,468.19,118.764 M474.837,116.808c0.802-0.97,1.204-2.354,1.204-4.152
	s-0.398-3.179-1.195-4.142c-0.796-0.964-1.92-1.445-3.371-1.445c-1.439,0-2.56,0.484-3.362,1.454
	c-0.803,0.971-1.204,2.348-1.204,4.133c0,1.786,0.401,3.167,1.204,4.143c0.803,0.977,1.923,1.465,3.362,1.465
	C472.914,118.263,474.034,117.777,474.837,116.808"/>
<path fill="#343844" d="M493.14,105.999c0.135,0.146,0.202,0.344,0.202,0.588v12.195c0,0.231-0.063,0.418-0.192,0.56
	c-0.128,0.141-0.308,0.212-0.539,0.212s-0.405-0.071-0.521-0.212c-0.115-0.142-0.174-0.328-0.174-0.56v-9.846l-4.181,8.016
	c-0.18,0.373-0.443,0.559-0.79,0.559c-0.334,0-0.597-0.186-0.79-0.559l-4.2-7.919v9.749c0,0.231-0.061,0.418-0.183,0.56
	c-0.122,0.141-0.299,0.212-0.529,0.212c-0.232,0-0.412-0.071-0.54-0.212c-0.128-0.142-0.193-0.328-0.193-0.56v-12.195
	c0-0.244,0.071-0.441,0.213-0.588c0.141-0.147,0.333-0.222,0.577-0.222c0.321,0,0.578,0.187,0.771,0.559l4.894,9.383l4.836-9.383
	c0.103-0.205,0.215-0.35,0.337-0.434c0.122-0.083,0.267-0.125,0.434-0.125C492.816,105.777,493.005,105.852,493.14,105.999"/>
<path fill="#343844" d="M496.926,119.332c-0.142-0.148-0.213-0.344-0.213-0.588v-12.1c0-0.231,0.074-0.418,0.222-0.559
	c0.146-0.142,0.344-0.212,0.588-0.212h4.566c1.426,0,2.533,0.347,3.323,1.04s1.186,1.676,1.186,2.948
	c0,1.271-0.398,2.261-1.194,2.967c-0.797,0.707-1.901,1.06-3.314,1.06h-3.796v4.855c0,0.244-0.07,0.439-0.212,0.588
	c-0.142,0.147-0.334,0.222-0.578,0.222S497.067,119.479,496.926,119.332 M501.935,112.578c2.068,0,3.103-0.905,3.103-2.716
	c0-1.785-1.034-2.68-3.103-2.68h-3.642v5.396H501.935z"/>
<path fill="#343844" d="M519.466,118.879c0,0.192-0.072,0.354-0.221,0.481c-0.147,0.129-0.324,0.193-0.529,0.193
	c-0.321,0-0.546-0.154-0.675-0.463l-1.367-3.121h-7.265l-1.387,3.121c-0.129,0.309-0.354,0.463-0.675,0.463
	c-0.205,0-0.385-0.067-0.539-0.203c-0.154-0.135-0.231-0.298-0.231-0.491c0-0.103,0.025-0.205,0.077-0.308l5.511-12.254
	c0.077-0.18,0.192-0.315,0.347-0.405s0.321-0.135,0.501-0.135c0.192,0,0.366,0.048,0.521,0.145c0.153,0.097,0.269,0.229,0.347,0.396
	l5.51,12.254C519.442,118.654,519.466,118.764,519.466,118.879 M509.988,114.659h6.108l-3.063-6.917L509.988,114.659z"/>
<path fill="#343844" d="M532.395,105.999c0.129,0.146,0.193,0.344,0.193,0.588v12.157c0,0.244-0.067,0.44-0.202,0.588
	c-0.136,0.146-0.325,0.222-0.568,0.222c-0.244,0-0.456-0.109-0.636-0.328l-7.996-10.693v10.212c0,0.244-0.067,0.44-0.202,0.588
	c-0.136,0.146-0.318,0.222-0.55,0.222s-0.411-0.075-0.539-0.222c-0.129-0.147-0.193-0.344-0.193-0.588v-12.157
	c0-0.244,0.068-0.441,0.203-0.588c0.135-0.147,0.324-0.222,0.568-0.222c0.257,0,0.475,0.109,0.653,0.326l7.979,10.694v-10.211
	c0-0.244,0.067-0.441,0.202-0.588c0.135-0.147,0.316-0.222,0.549-0.222C532.087,105.777,532.267,105.852,532.395,105.999"/>
<path fill="#343844" d="M544.996,105.797c0.18,0,0.341,0.07,0.482,0.212c0.141,0.142,0.212,0.314,0.212,0.52
	c0,0.193-0.058,0.354-0.174,0.482l-4.682,5.915v5.818c0,0.257-0.074,0.456-0.222,0.598c-0.147,0.141-0.337,0.212-0.568,0.212
	c-0.232,0-0.421-0.071-0.569-0.212c-0.146-0.142-0.221-0.341-0.221-0.598v-5.838l-4.682-5.896c-0.129-0.142-0.193-0.302-0.193-0.482
	c0-0.205,0.074-0.378,0.221-0.52c0.148-0.142,0.319-0.212,0.512-0.212c0.219,0,0.404,0.096,0.559,0.289l4.394,5.607l4.373-5.607
	C544.591,105.893,544.778,105.797,544.996,105.797"/>
<path fill="#23C5D9" d="M84.617,18.613c0.556,4.201-0.647,7.826-2.688,8.096c-2.04,0.27-4.145-2.917-4.701-7.118
	c-0.556-4.201,0.647-7.826,2.687-8.096C81.956,11.225,84.061,14.411,84.617,18.613"/>
<path fill="#23C5D9" d="M101.549,11.203c-7.148-3.28-14.942-0.405-20.396,7.454c-0.605,0.869-0.39,2.064,0.479,2.669
	c0.865,0.61,2.065,0.395,2.67-0.48c4.399-6.329,10.244-8.633,15.647-6.154c6.765,3.094,11.813,13.233,8.369,26.611
	c-6.204,24.151-34.264,53.521-44.873,60.745c-1.181,0.799-2.494,1.195-3.939,1.277l0.006-0.232
	c-11.236-4.286-26.204-20.028-39.87-42.16C8.131,42.29,8.698,30.448,11.198,23.795c0.001-0.004,0.004-0.007,0.005-0.011
	c2.506-6.655,7.322-9.421,9.973-10.478c8.42-3.354,20.268,2.409,25.719,5.534c1.806,1.035,2.912,1.782,2.956,1.81
	c0.944,0.651,2.311,0.504,3.04-0.337c0.73-0.835,0.554-2.04-0.401-2.691c-0.059-0.041-0.248-0.167-0.502-0.332l0.5-2.345
	c-1.046-0.738-2.28-1.562-3.636-2.408l0.034-0.157C42.159,7.636,28.334-0.511,16.537,2.86C10.23,4.654,5.049,8.889,1.784,14.8
	c0,0-8.572,16.484,11.868,45.007c2.163,3.759,4.719,7.688,7.851,11.66c0.011,0.015,0.019,0.024,0.031,0.038
	c11.219,16.379,22.784,28.177,32.738,33.454v0.009c0,0,0.384,0.234,1.061,0.516c0.907,0.378,2.346,0.833,4.088,0.937
	c2.079,0.124,4.591-0.271,7.182-1.934c12.851-9.283,39.273-38.25,45.434-62.223C116.002,26.84,109.763,14.962,101.549,11.203"/>
<path fill="#23C5D9" d="M53.5,95.464c0,0,1.112,10.701,12.036,5.049l-1.402,2.443l-7.548,0.137l-5.019-3.534L53.5,95.464z"/>
<path fill="#23C5D9" d="M54.802,99.227c0,0-1.452-3.418,0-6.771c1.452-3.354-0.837-2.43-0.837-2.43l-1.936,6.999L54.802,99.227z"/>
<rect x="-142.711" y="-236.418" fill="none" width="841.89" height="595.281"/>
</svg>
