<?xml version="1.0" encoding="utf-8"?>
<!-- Generator: Adobe Illustrator 16.0.0, SVG Export Plug-In . SVG Version: 6.00 Build 0)  -->
<!DOCTYPE svg PUBLIC "-//W3C//DTD SVG 1.1//EN" "http://www.w3.org/Graphics/SVG/1.1/DTD/svg11.dtd">
<svg version="1.1" id="Capa_1" xmlns="http://www.w3.org/2000/svg" xmlns:xlink="http://www.w3.org/1999/xlink" x="0px" y="0px"
	 width="612px" height="152.73px" viewBox="0 0 612 152.73" enable-background="new 0 0 612 152.73" xml:space="preserve">
<g>
	<g>
		<path fill="#343844" d="M162.164,118.768c-3.658-1.095-6.635-2.575-8.929-4.444c-1.229-0.906-1.843-2.188-1.843-3.844
			c0-1.123,0.333-2.096,1.001-2.923c0.667-0.829,1.455-1.242,2.362-1.242c0.962,0,2.056,0.374,3.285,1.121
			c2.294,1.656,4.698,2.857,7.208,3.604c2.51,0.748,5.286,1.119,8.329,1.119c3.897,0,6.887-0.68,8.97-2.04
			c2.083-1.362,3.124-3.352,3.124-5.968c0-2.026-0.975-3.59-2.923-4.684c-1.949-1.097-5.193-2.149-9.73-3.164
			c-4.699-1.015-8.517-2.188-11.451-3.523c-2.937-1.334-5.153-3.043-6.647-5.126c-1.496-2.081-2.243-4.725-2.243-7.929
			c0-3.311,0.934-6.272,2.804-8.889c1.869-2.615,4.471-4.657,7.808-6.127c3.335-1.469,7.087-2.201,11.251-2.201
			c7.635,0,13.855,2.029,18.659,6.087c0.694,0.587,1.188,1.161,1.481,1.722c0.292,0.562,0.44,1.27,0.44,2.121
			c0,1.123-0.335,2.096-1.002,2.923c-0.668,0.829-1.454,1.242-2.362,1.242c-0.535,0-1.029-0.08-1.481-0.24
			c-0.454-0.16-1.054-0.454-1.802-0.881c-2.19-1.602-4.312-2.789-6.367-3.564c-2.056-0.772-4.578-1.16-7.568-1.16
			c-3.632,0-6.501,0.734-8.609,2.201c-2.11,1.471-3.163,3.512-3.163,6.125c0,2.19,0.934,3.873,2.804,5.048
			c1.869,1.174,5.045,2.27,9.53,3.282c4.752,1.069,8.61,2.258,11.572,3.563c2.964,1.31,5.233,2.978,6.808,5.005
			c1.575,2.029,2.362,4.565,2.362,7.609c0,3.31-0.921,6.231-2.762,8.769c-1.842,2.536-4.433,4.514-7.769,5.927
			c-3.337,1.415-7.167,2.12-11.491,2.12C169.705,120.408,165.82,119.861,162.164,118.768z"/>
		<path fill="#343844" d="M259.787,83.368c2.269,2.537,3.404,6.637,3.404,12.293v19.702c0,1.55-0.468,2.737-1.402,3.564
			c-0.935,0.827-2.149,1.241-3.644,1.241c-1.442,0-2.63-0.414-3.564-1.241c-0.935-0.829-1.402-2.016-1.402-3.564V95.661
			c0-2.934-0.521-5.03-1.561-6.285c-1.042-1.255-2.63-1.883-4.765-1.883c-2.618,0-4.699,0.896-6.247,2.684
			c-1.549,1.79-2.323,4.231-2.323,7.329v17.857c0,1.55-0.468,2.737-1.402,3.564c-0.935,0.827-2.123,1.241-3.564,1.241
			s-2.643-0.414-3.604-1.241c-0.96-0.829-1.441-2.016-1.441-3.564V95.661c0-2.934-0.521-5.03-1.561-6.285
			c-1.041-1.255-2.63-1.883-4.764-1.883c-2.618,0-4.685,0.896-6.206,2.684c-1.522,1.79-2.283,4.231-2.283,7.329v17.857
			c0,1.55-0.481,2.737-1.441,3.564c-0.962,0.827-2.162,1.241-3.604,1.241c-1.441,0-2.63-0.414-3.564-1.241
			c-0.935-0.829-1.402-2.016-1.402-3.564V84.371c0-1.493,0.481-2.644,1.441-3.443c0.962-0.801,2.163-1.202,3.604-1.202
			c1.388,0,2.523,0.389,3.404,1.161c0.881,0.773,1.321,1.883,1.321,3.324v1.921c1.229-2.135,2.869-3.766,4.925-4.887
			c2.055-1.119,4.417-1.682,7.087-1.682c5.873,0,9.797,2.455,11.772,7.367c1.173-2.242,2.91-4.03,5.206-5.365
			c2.296-1.334,4.885-2.004,7.768-2.004C254.247,79.567,257.517,80.834,259.787,83.368z"/>
		<path fill="#343844" d="M272.959,71.117c-1.068-0.986-1.602-2.281-1.602-3.883s0.533-2.883,1.602-3.844
			c1.067-0.962,2.509-1.441,4.325-1.441c1.762,0,3.19,0.481,4.285,1.441c1.094,0.961,1.642,2.242,1.642,3.844
			s-0.535,2.897-1.602,3.883c-1.068,0.989-2.51,1.481-4.325,1.481C275.468,72.599,274.026,72.107,272.959,71.117z M273.72,118.929
			c-0.935-0.829-1.402-2.016-1.402-3.564V84.451c0-1.547,0.467-2.723,1.402-3.522c0.934-0.802,2.123-1.202,3.564-1.202
			c1.442,0,2.644,0.4,3.604,1.202c0.962,0.801,1.441,1.977,1.441,3.522v30.913c0,1.55-0.481,2.737-1.441,3.564
			c-0.962,0.827-2.162,1.241-3.604,1.241C275.842,120.17,274.653,119.754,273.72,118.929z"/>
		<path fill="#343844" d="M293.021,118.929c-0.935-0.829-1.402-2.016-1.402-3.564V67.554c0-1.548,0.467-2.724,1.402-3.524
			c0.934-0.801,2.123-1.202,3.564-1.202c1.442,0,2.643,0.401,3.604,1.202c0.96,0.8,1.44,1.978,1.44,3.524v47.811
			c0,1.55-0.48,2.737-1.44,3.564c-0.963,0.827-2.162,1.241-3.604,1.241C295.143,120.17,293.954,119.754,293.021,118.929z"/>
		<path fill="#343844" d="M344.113,109.998c0.562,0.694,0.841,1.63,0.841,2.804c0,1.656-0.988,3.043-2.964,4.164
			c-1.815,1.015-3.871,1.83-6.166,2.441c-2.296,0.614-4.485,0.923-6.566,0.923c-6.301,0-11.293-1.814-14.976-5.446
			c-3.687-3.63-5.526-8.595-5.526-14.896c0-4.004,0.8-7.555,2.401-10.651c1.603-3.097,3.855-5.497,6.767-7.208
			c2.91-1.708,6.206-2.563,9.892-2.563c3.523,0,6.594,0.775,9.21,2.322c2.614,1.55,4.646,3.738,6.087,6.567
			c1.44,2.83,2.162,6.166,2.162,10.011c0,2.297-1.017,3.444-3.043,3.444h-23.625c0.319,3.685,1.36,6.395,3.124,8.129
			c1.762,1.736,4.323,2.603,7.688,2.603c1.708,0,3.216-0.213,4.524-0.64c1.309-0.429,2.79-1.016,4.444-1.764
			c1.604-0.854,2.775-1.28,3.524-1.28C342.817,108.957,343.553,109.306,344.113,109.998z M321.529,89.177
			c-1.63,1.71-2.604,4.164-2.923,7.368h18.099c-0.107-3.258-0.908-5.728-2.402-7.408c-1.495-1.684-3.578-2.522-6.247-2.522
			C325.333,86.615,323.158,87.469,321.529,89.177z"/>
		<path fill="#23C5D9" d="M404.938,115.605c0,1.229-0.494,2.271-1.481,3.124c-0.987,0.854-2.121,1.281-3.402,1.281
			c-0.854,0-1.655-0.229-2.402-0.683c-0.748-0.451-1.335-1.159-1.762-2.12l-4.806-10.73h-28.188l-4.807,10.73
			c-0.429,0.961-1.015,1.67-1.763,2.12c-0.747,0.454-1.574,0.683-2.482,0.683c-1.229,0-2.35-0.428-3.363-1.281
			c-1.016-0.854-1.522-1.896-1.522-3.124c0-0.693,0.16-1.388,0.481-2.083l22.103-47.489c0.48-1.067,1.213-1.883,2.203-2.442
			c0.987-0.561,2.042-0.841,3.163-0.841c1.122,0,2.175,0.28,3.164,0.841c0.986,0.561,1.722,1.375,2.203,2.442l22.183,47.489
			C404.776,114.217,404.938,114.911,404.938,115.605z M366.416,98.466h21.143l-10.571-23.784L366.416,98.466z"/>
		<path fill="#23C5D9" d="M442.335,82.049c2.614,1.654,4.658,4.004,6.126,7.047c1.469,3.043,2.202,6.595,2.202,10.65
			c0,4.061-0.733,7.648-2.202,10.771c-1.47,3.123-3.523,5.539-6.167,7.246c-2.644,1.71-5.646,2.563-9.009,2.563
			c-2.83,0-5.354-0.613-7.568-1.843c-2.215-1.229-3.911-2.937-5.085-5.125v2.002c0,1.441-0.454,2.592-1.362,3.444
			c-0.906,0.854-2.108,1.281-3.604,1.281s-2.683-0.428-3.564-1.281c-0.881-0.854-1.319-2.003-1.319-3.444v-47.89
			c0-1.389,0.467-2.51,1.4-3.364c0.935-0.854,2.149-1.283,3.646-1.283c1.492,0,2.695,0.401,3.604,1.202
			c0.906,0.802,1.362,1.896,1.362,3.283v18.9c1.173-2.135,2.855-3.774,5.045-4.926c2.189-1.146,4.672-1.722,7.449-1.722
			C436.702,79.567,439.719,80.395,442.335,82.049z M438.01,109.198c1.764-2.242,2.646-5.392,2.646-9.451
			c0-4.004-0.869-7.072-2.604-9.21c-1.734-2.134-4.202-3.203-7.406-3.203c-3.203,0-5.674,1.082-7.407,3.243
			c-1.736,2.163-2.603,5.272-2.603,9.329c0,4.059,0.867,7.183,2.603,9.371c1.734,2.189,4.204,3.283,7.407,3.283
			C433.793,112.561,436.249,111.44,438.01,109.198z"/>
		<path fill="#23C5D9" d="M483.019,80.608c0.802,0.694,1.202,1.736,1.202,3.123c0,1.441-0.348,2.51-1.042,3.204
			s-1.95,1.148-3.764,1.362l-2.403,0.24c-3.149,0.319-5.46,1.39-6.928,3.202c-1.47,1.816-2.201,4.085-2.201,6.809v16.815
			c0,1.55-0.48,2.737-1.441,3.564c-0.96,0.827-2.162,1.241-3.604,1.241s-2.63-0.414-3.563-1.241
			c-0.936-0.829-1.401-2.016-1.401-3.564V84.371c0-1.493,0.467-2.644,1.401-3.443c0.936-0.802,2.096-1.202,3.484-1.202
			s2.508,0.389,3.362,1.161c0.854,0.773,1.281,1.883,1.281,3.324v3.201c1.015-2.349,2.521-4.164,4.523-5.444
			c2.002-1.281,4.231-2.003,6.688-2.163l1.121-0.08C481.123,79.618,482.219,79.913,483.019,80.608z"/>
		<path fill="#23C5D9" d="M494.03,117.846c-3.019-1.653-5.354-4.03-7.008-7.127c-1.655-3.096-2.482-6.701-2.482-10.813
			s0.827-7.7,2.482-10.771c1.653-3.07,3.989-5.433,7.008-7.087c3.017-1.654,6.525-2.483,10.529-2.483
			c4.006,0,7.516,0.829,10.532,2.483s5.338,4.018,6.968,7.087c1.628,3.07,2.442,6.658,2.442,10.771s-0.814,7.718-2.442,10.813
			c-1.63,3.097-3.951,5.474-6.968,7.127c-3.018,1.656-6.527,2.484-10.532,2.484C500.557,120.33,497.047,119.502,494.03,117.846z
			 M511.929,109.357c1.709-2.134,2.563-5.285,2.563-9.449c0-4.109-0.854-7.246-2.563-9.409c-1.709-2.161-4.164-3.241-7.368-3.241
			c-3.201,0-5.674,1.079-7.405,3.241c-1.736,2.163-2.603,5.3-2.603,9.409c0,4.164,0.854,7.315,2.563,9.449
			c1.707,2.137,4.164,3.204,7.366,3.204C507.738,112.561,510.22,111.493,511.929,109.357z"/>
		<path fill="#23C5D9" d="M560.82,83.611c2.643,2.697,3.964,6.795,3.964,12.293v19.54c0,1.442-0.427,2.577-1.281,3.404
			c-0.854,0.827-2.029,1.241-3.522,1.241c-1.39,0-2.522-0.427-3.403-1.281c-0.881-0.854-1.321-1.975-1.321-3.364v-1.762
			c-0.908,2.083-2.335,3.713-4.285,4.887c-1.948,1.173-4.204,1.763-6.767,1.763c-2.616,0-4.992-0.535-7.128-1.603
			c-2.135-1.067-3.817-2.536-5.045-4.405c-1.229-1.868-1.844-3.949-1.844-6.247c0-2.882,0.733-5.151,2.203-6.809
			c1.469-1.652,3.856-2.855,7.168-3.604c3.31-0.746,7.874-1.121,13.694-1.121h2.002v-1.843c0-2.614-0.561-4.523-1.683-5.726
			c-1.121-1.202-2.937-1.801-5.445-1.801c-1.55,0-3.123,0.227-4.725,0.68c-1.604,0.453-3.499,1.106-5.688,1.962
			c-1.389,0.694-2.4,1.041-3.043,1.041c-0.961,0-1.749-0.347-2.362-1.041s-0.922-1.604-0.922-2.724c0-0.907,0.228-1.693,0.682-2.363
			c0.454-0.666,1.213-1.294,2.281-1.881c1.868-1.016,4.097-1.814,6.688-2.404c2.591-0.586,5.139-0.881,7.648-0.881
			C554.133,79.567,558.178,80.913,560.82,83.611z M552.732,110.44c1.683-1.789,2.521-4.097,2.521-6.927v-1.683h-1.441
			c-3.576,0-6.354,0.159-8.328,0.479c-1.976,0.319-3.392,0.882-4.244,1.682c-0.854,0.803-1.281,1.896-1.281,3.284
			c0,1.71,0.601,3.111,1.802,4.204c1.201,1.096,2.684,1.643,4.445,1.643C548.875,113.122,551.05,112.228,552.732,110.44z"/>
		<path fill="#23C5D9" d="M610.271,64.11c0.962,0.854,1.441,1.976,1.441,3.364v47.891c0,1.441-0.454,2.592-1.362,3.445
			c-0.908,0.854-2.109,1.281-3.604,1.281s-2.697-0.428-3.604-1.281s-1.36-2.004-1.36-3.445v-2.002
			c-1.175,2.189-2.871,3.897-5.086,5.125c-2.218,1.229-4.738,1.844-7.567,1.844c-3.363,0-6.367-0.854-9.009-2.563
			c-2.645-1.707-4.699-4.125-6.168-7.246c-1.47-3.125-2.202-6.713-2.202-10.772c0-4.057,0.731-7.606,2.202-10.649
			c1.469-3.044,3.511-5.394,6.127-7.048c2.615-1.655,5.633-2.483,9.05-2.483c2.829,0,5.338,0.589,7.528,1.762
			c2.188,1.177,3.87,2.831,5.045,4.965V67.317c0-1.334,0.44-2.415,1.32-3.244c0.882-0.827,2.068-1.241,3.563-1.241
			C608.082,62.828,609.313,63.257,610.271,64.11z M599.18,109.278c1.735-2.188,2.604-5.313,2.604-9.371
			c0-4.057-0.868-7.167-2.604-9.329c-1.735-2.163-4.178-3.243-7.328-3.243c-3.201,0-5.687,1.069-7.446,3.203
			c-1.764,2.138-2.645,5.206-2.645,9.21c0,4.061,0.881,7.209,2.645,9.451c1.761,2.241,4.217,3.362,7.366,3.362
			C594.976,112.561,597.444,111.468,599.18,109.278z"/>
	</g>
	<path fill="#23C5D9" d="M65.788,130.425c-1.315,0-2.405-1.032-2.462-2.354c-0.077-1.879-0.77-46.361,97.987-83.279
		c0.141-0.063,26.563-11.783,34.43-34.129c0.442-1.275,1.821-1.962,3.142-1.5c1.283,0.449,1.956,1.854,1.5,3.143
		c-8.585,24.39-36.064,36.545-37.231,37.052c-95.057,35.539-94.917,78.1-94.903,78.522c0.039,1.354-1.02,2.495-2.373,2.546
		C65.846,130.425,65.813,130.425,65.788,130.425z"/>
	
		<ellipse transform="matrix(-0.1261 0.992 -0.992 -0.1261 98.1957 -40.5854)" fill="#23C5D9" cx="66.974" cy="22.959" rx="9.841" ry="4.78"/>
	<g>
		<path fill="#343844" d="M197.528,54.403c-0.408-1.077-0.85-2.007-1.113-2.986c-1.313-4.882-2.56-9.781-3.871-14.666
			c-0.513-1.91-1.13-3.795-1.7-5.689c-0.035-0.117-0.086-0.229-0.125-0.332c-0.067-0.001-0.117-0.017-0.13,0
			c-2.556,3.041-5.623,5.514-8.784,7.877c-1.91,1.428-3.801,2.889-5.787,4.204c-1.017,0.673-2.205,1.107-3.35,1.566
			c-1.183,0.474-2.405,0.473-3.641,0.11c-2.375-0.695-4.583-1.777-6.759-2.92c-1.812-0.953-3.567-2.017-5.339-3.047
			c-0.317-0.186-0.593-0.439-0.924-0.688c0.792-1.126,1.817-1.922,3.117-2.175c1.236-0.241,2.519-0.324,3.782-0.334
			c1.411-0.012,2.824,0.132,4.235,0.214c2.734,0.158,5.017-0.739,6.832-2.832c1.586-1.829,3.187-3.648,4.849-5.408
			c5.633-5.963,11.282-11.908,16.952-17.837c1.978-2.066,3.973-4.125,6.069-6.07c1.735-1.612,3.756-2.825,6.095-3.417
			c1.979-0.5,3.928-0.386,5.838,0.321c0.186,0.068,0.362,0.261,0.464,0.438c0.582,1.019,0.531,2.063,0.192,3.163
			c-0.634,2.053-1.676,3.879-3.121,5.43c-1.829,1.963-3.796,3.799-5.676,5.715c-1.188,1.21-2.333,2.462-3.476,3.715
			c-0.147,0.162-0.242,0.438-0.239,0.659c0.128,7.6,0.261,15.198,0.421,22.797c0.029,1.412,0.186,2.821,0.269,4.232
			c0.028,0.494,0.018,0.989,0.011,1.483c-0.018,1.16-0.364,2.232-1.202,3.031C200.172,52.148,198.841,53.247,197.528,54.403z"/>
		<path fill="#343844" d="M164.996,21.307c1.12-2.738,3.05-4.361,5.707-5.004c1.602-0.39,3.274-0.613,4.921-0.654
			c3.437-0.086,6.879-0.002,10.341,0.012c-0.285,0.355-0.579,0.786-0.935,1.157c-2.317,2.402-4.644,4.794-6.982,7.176
			c-0.118,0.121-0.38,0.195-0.548,0.16c-2.715-0.563-5.43-1.13-8.136-1.736C167.92,22.092,166.495,21.691,164.996,21.307z"/>
	</g>
	<path fill="#23C5D9" d="M69.598,120.778c0,0-2.979,8.374,4.851,11.235l-1.988,1.905l-8.108-3.953l4.018-9.188L69.598,120.778
		L69.598,120.778z"/>
	<path fill="#23C5D9" d="M70.109,129.74c0,0,4.235,6.032,15.65-2.096l-1.57,3.946l-6.255,2.604H73.39l-5.292-3.274L70.109,129.74z"
		/>
	<g>
		<path fill="#343844" d="M253.952,152.126c0,0.246-0.094,0.454-0.285,0.617c-0.188,0.164-0.416,0.247-0.678,0.247
			c-0.412,0-0.7-0.197-0.866-0.595l-1.753-4.002h-9.317l-1.779,4.002c-0.166,0.396-0.454,0.595-0.866,0.595
			c-0.263,0-0.494-0.086-0.691-0.261c-0.197-0.173-0.296-0.382-0.296-0.63c0-0.132,0.032-0.263,0.099-0.395l7.068-15.718
			c0.099-0.229,0.246-0.402,0.445-0.519c0.199-0.116,0.412-0.174,0.643-0.174c0.247,0,0.47,0.062,0.668,0.187
			c0.196,0.124,0.346,0.293,0.445,0.508l7.067,15.717C253.92,151.838,253.952,151.979,253.952,152.126z M241.795,146.714h7.833
			l-3.928-8.871L241.795,146.714z"/>
		<path fill="#343844" d="M279.391,135.608c0.173,0.188,0.259,0.441,0.259,0.754v15.642c0,0.296-0.081,0.536-0.246,0.718
			c-0.164,0.182-0.395,0.271-0.691,0.271s-0.52-0.091-0.668-0.271c-0.147-0.182-0.223-0.42-0.223-0.718v-12.626l-5.362,10.278
			c-0.231,0.479-0.568,0.718-1.013,0.718c-0.428,0-0.766-0.239-1.013-0.718l-5.387-10.155v12.503c0,0.296-0.078,0.536-0.234,0.718
			c-0.157,0.182-0.384,0.271-0.68,0.271c-0.296,0-0.527-0.091-0.691-0.271c-0.166-0.182-0.248-0.42-0.248-0.718v-15.642
			c0-0.313,0.091-0.563,0.273-0.754c0.181-0.188,0.427-0.284,0.74-0.284c0.412,0,0.741,0.239,0.989,0.718l6.277,12.032l6.202-12.032
			c0.132-0.265,0.275-0.449,0.432-0.558c0.156-0.105,0.342-0.16,0.557-0.16C278.976,135.323,279.218,135.418,279.391,135.608z"/>
		<path fill="#343844" d="M284.258,152.596c-0.188-0.183-0.285-0.419-0.285-0.717v-15.444c0-0.296,0.095-0.536,0.285-0.717
			c0.188-0.183,0.441-0.271,0.754-0.271h9.242c0.296,0,0.527,0.074,0.691,0.223c0.166,0.146,0.248,0.354,0.248,0.615
			c0,0.266-0.082,0.471-0.248,0.619c-0.164,0.147-0.395,0.223-0.691,0.223h-8.277v6.055h7.782c0.296,0,0.527,0.074,0.693,0.223
			c0.164,0.147,0.246,0.354,0.246,0.617s-0.082,0.47-0.246,0.617c-0.166,0.146-0.396,0.223-0.693,0.223h-7.782v6.325h8.277
			c0.296,0,0.527,0.071,0.691,0.211c0.166,0.14,0.248,0.351,0.248,0.63c0,0.265-0.082,0.469-0.248,0.616
			c-0.164,0.149-0.395,0.224-0.691,0.224h-9.242C284.699,152.867,284.448,152.779,284.258,152.596z"/>
		<path fill="#343844" d="M298.639,152.596c-0.188-0.183-0.283-0.419-0.283-0.717v-15.444c0-0.296,0.095-0.536,0.283-0.717
			c0.188-0.183,0.441-0.271,0.755-0.271h4.818c2.784,0,4.938,0.752,6.462,2.262c1.523,1.507,2.286,3.652,2.286,6.437
			c0,2.785-0.768,4.937-2.299,6.45s-3.683,2.271-6.449,2.271h-4.818C299.08,152.867,298.827,152.779,298.639,152.596z
			 M304.088,151.138c4.516,0,6.771-2.33,6.771-6.994c0-4.645-2.258-6.968-6.771-6.968h-3.707v13.962H304.088L304.088,151.138z"/>
		<path fill="#343844" d="M316.89,152.707c-0.183-0.188-0.272-0.441-0.272-0.754v-15.593c0-0.313,0.091-0.563,0.272-0.754
			c0.182-0.188,0.428-0.284,0.739-0.284c0.313,0,0.562,0.096,0.741,0.284c0.182,0.189,0.271,0.441,0.271,0.754v15.593
			c0,0.313-0.09,0.563-0.271,0.754c-0.182,0.189-0.428,0.284-0.741,0.284C317.316,152.992,317.068,152.896,316.89,152.707z"/>
		<path fill="#343844" d="M326.056,151.99c-1.203-0.718-2.129-1.744-2.778-3.09c-0.651-1.341-0.978-2.928-0.978-4.757
			c0-1.811,0.325-3.39,0.978-4.729c0.649-1.344,1.575-2.373,2.778-3.09c1.203-0.716,2.628-1.073,4.275-1.073
			c1.104,0,2.146,0.177,3.126,0.529c0.98,0.354,1.834,0.861,2.559,1.521c0.264,0.247,0.396,0.536,0.396,0.865
			c0,0.23-0.066,0.433-0.197,0.604s-0.289,0.259-0.47,0.259c-0.196,0-0.437-0.09-0.717-0.271c-0.84-0.659-1.603-1.12-2.285-1.384
			c-0.685-0.264-1.471-0.396-2.36-0.396c-1.91,0-3.382,0.621-4.41,1.865c-1.029,1.245-1.544,3.011-1.544,5.301
			c0,2.308,0.515,4.082,1.544,5.324c1.03,1.243,2.5,1.866,4.41,1.866c0.874,0,1.656-0.132,2.349-0.396
			c0.691-0.264,1.459-0.725,2.298-1.385c0.28-0.181,0.52-0.271,0.717-0.271c0.183,0,0.339,0.082,0.47,0.246
			c0.132,0.166,0.197,0.371,0.197,0.618c0,0.33-0.132,0.617-0.396,0.864c-0.725,0.659-1.577,1.166-2.559,1.521
			c-0.98,0.354-2.021,0.531-3.126,0.531C328.684,153.066,327.257,152.707,326.056,151.99z"/>
		<path fill="#343844" d="M354.349,152.126c0,0.246-0.094,0.454-0.283,0.617c-0.188,0.164-0.416,0.247-0.68,0.247
			c-0.412,0-0.7-0.197-0.864-0.595l-1.755-4.002h-9.316l-1.778,4.002c-0.166,0.396-0.454,0.595-0.866,0.595
			c-0.263,0-0.492-0.086-0.69-0.261c-0.197-0.173-0.296-0.382-0.296-0.63c0-0.132,0.031-0.263,0.099-0.395l7.068-15.718
			c0.099-0.229,0.246-0.402,0.443-0.519c0.199-0.116,0.412-0.174,0.644-0.174c0.246,0,0.47,0.062,0.669,0.187
			c0.195,0.124,0.346,0.293,0.443,0.508l7.066,15.717C354.316,151.838,354.349,151.979,354.349,152.126z M342.192,146.714h7.833
			l-3.929-8.871L342.192,146.714z"/>
		<path fill="#343844" d="M357.5,152.609c-0.188-0.173-0.285-0.399-0.285-0.68v-15.567c0-0.313,0.092-0.563,0.273-0.754
			c0.181-0.188,0.428-0.284,0.739-0.284c0.313,0,0.562,0.096,0.741,0.284c0.181,0.189,0.272,0.441,0.272,0.754v14.776h7.981
			c0.296,0,0.526,0.074,0.69,0.222c0.166,0.148,0.248,0.363,0.248,0.644s-0.082,0.495-0.248,0.643
			c-0.164,0.148-0.396,0.223-0.69,0.223h-9.02C357.925,152.867,357.688,152.781,357.5,152.609z"/>
		<path fill="#343844" d="M381.419,152.707c-0.188-0.188-0.283-0.441-0.283-0.754v-14.775h-5.313c-0.297,0-0.527-0.076-0.692-0.224
			c-0.165-0.148-0.247-0.361-0.247-0.644c0-0.279,0.082-0.495,0.247-0.643c0.165-0.148,0.396-0.223,0.692-0.223h12.676
			c0.297,0,0.527,0.074,0.691,0.223c0.166,0.146,0.248,0.362,0.248,0.643c0,0.281-0.082,0.495-0.248,0.644
			c-0.164,0.146-0.396,0.224-0.691,0.224h-5.313v14.774c0,0.313-0.09,0.564-0.271,0.755c-0.183,0.189-0.429,0.284-0.741,0.284
			C381.858,152.992,381.607,152.896,381.419,152.707z"/>
		<path fill="#343844" d="M393.7,151.979c-1.195-0.725-2.112-1.754-2.755-3.088c-0.644-1.335-0.963-2.909-0.963-4.721
			c0-1.829,0.315-3.414,0.949-4.757c0.635-1.344,1.549-2.373,2.743-3.09c1.195-0.716,2.607-1.073,4.239-1.073
			c1.631,0,3.043,0.356,4.237,1.073c1.194,0.718,2.108,1.746,2.743,3.09c0.635,1.343,0.95,2.92,0.95,4.729
			c0,1.813-0.319,3.392-0.963,4.732c-0.643,1.342-1.562,2.377-2.755,3.102c-1.195,0.726-2.599,1.088-4.213,1.088
			C396.301,153.066,394.895,152.703,393.7,151.979z M402.227,149.47c1.028-1.243,1.545-3.02,1.545-5.324
			c0-2.307-0.512-4.077-1.532-5.313c-1.021-1.236-2.463-1.854-4.323-1.854c-1.846,0-3.283,0.621-4.313,1.865
			c-1.028,1.245-1.544,3.011-1.544,5.301s0.516,4.063,1.544,5.313c1.03,1.253,2.468,1.879,4.313,1.879
			C399.759,151.336,401.195,150.713,402.227,149.47z"/>
		<path fill="#343844" d="M411.134,151.286c-1.17-1.188-1.755-2.933-1.755-5.237v-9.688c0-0.313,0.09-0.563,0.272-0.754
			c0.181-0.188,0.428-0.284,0.74-0.284c0.296,0,0.534,0.096,0.718,0.284c0.182,0.189,0.271,0.441,0.271,0.754v9.86
			c0,1.696,0.416,2.973,1.248,3.829s2.056,1.285,3.669,1.285c1.614,0,2.833-0.429,3.658-1.285c0.824-0.856,1.236-2.133,1.236-3.829
			v-9.86c0-0.313,0.094-0.563,0.283-0.754c0.189-0.188,0.434-0.284,0.729-0.284c0.313,0,0.561,0.096,0.74,0.284
			c0.183,0.188,0.271,0.441,0.271,0.754v9.688c0,2.289-0.589,4.032-1.767,5.225c-1.18,1.195-2.896,1.792-5.153,1.792
			C414.024,153.066,412.302,152.472,411.134,151.286z"/>
		<path fill="#343844" d="M440.859,152.177c0,0.246-0.096,0.448-0.284,0.604c-0.19,0.157-0.406,0.235-0.655,0.235
			c-0.379,0-0.675-0.164-0.889-0.494l-3.313-5.239c-0.429-0.675-0.874-1.142-1.334-1.396c-0.461-0.254-1.088-0.382-1.878-0.382
			h-3.113v6.448c0,0.313-0.092,0.563-0.271,0.754c-0.182,0.188-0.421,0.284-0.718,0.284c-0.313,0-0.562-0.095-0.74-0.284
			c-0.183-0.188-0.273-0.441-0.273-0.754v-15.52c0-0.296,0.096-0.536,0.285-0.717c0.188-0.183,0.44-0.271,0.754-0.271h6.128
			c1.896,0,3.341,0.419,4.337,1.26c0.996,0.84,1.494,2.074,1.494,3.707c0,1.384-0.398,2.494-1.198,3.337
			c-0.8,0.841-1.938,1.351-3.422,1.53c0.41,0.133,0.78,0.348,1.111,0.644c0.33,0.296,0.659,0.709,0.989,1.234l2.815,4.448
			C440.802,151.789,440.859,151.979,440.859,152.177z M434.386,143.823c1.352,0,2.359-0.28,3.026-0.84s1.001-1.408,1.001-2.545
			c0-1.119-0.33-1.952-0.989-2.495c-0.659-0.544-1.672-0.815-3.039-0.815h-4.992v6.696L434.386,143.823L434.386,143.823z"/>
		<path fill="#343844" d="M444.615,152.707c-0.184-0.188-0.273-0.441-0.273-0.754v-15.593c0-0.313,0.091-0.563,0.273-0.754
			c0.181-0.188,0.427-0.284,0.74-0.284c0.313,0,0.56,0.096,0.74,0.284c0.182,0.189,0.271,0.441,0.271,0.754v15.593
			c0,0.313-0.09,0.563-0.271,0.754c-0.183,0.189-0.429,0.284-0.74,0.284C445.042,152.992,444.796,152.896,444.615,152.707z"/>
		<path fill="#343844" d="M452.682,152.51c-1.128-0.371-2.029-0.869-2.704-1.495c-0.246-0.231-0.37-0.519-0.37-0.864
			c0-0.23,0.065-0.434,0.196-0.606s0.289-0.26,0.471-0.26c0.214,0,0.444,0.092,0.69,0.271c1.531,1.187,3.279,1.78,5.239,1.78
			c1.415,0,2.503-0.271,3.261-0.815s1.138-1.316,1.138-2.324c0-0.574-0.182-1.042-0.544-1.396c-0.361-0.354-0.84-0.637-1.434-0.853
			c-0.593-0.214-1.392-0.438-2.396-0.668c-1.352-0.313-2.459-0.643-3.323-0.988c-0.866-0.347-1.566-0.841-2.102-1.482
			c-0.536-0.643-0.804-1.482-0.804-2.52c0-0.989,0.268-1.866,0.804-2.635c0.534-0.766,1.285-1.358,2.248-1.777
			c0.964-0.421,2.063-0.63,3.299-0.63c1.152,0,2.229,0.177,3.226,0.53c0.998,0.354,1.833,0.86,2.509,1.521
			c0.263,0.264,0.396,0.553,0.396,0.865c0,0.23-0.065,0.433-0.197,0.604c-0.133,0.174-0.289,0.26-0.469,0.26
			c-0.183,0-0.422-0.09-0.719-0.271c-0.807-0.659-1.558-1.119-2.248-1.384c-0.69-0.264-1.523-0.396-2.495-0.396
			c-1.367,0-2.432,0.284-3.188,0.853c-0.758,0.567-1.136,1.362-1.136,2.384c0,0.875,0.333,1.528,1,1.965
			c0.667,0.438,1.69,0.819,3.076,1.148c1.499,0.362,2.676,0.696,3.532,1c0.856,0.307,1.569,0.765,2.139,1.371
			c0.567,0.61,0.853,1.426,0.853,2.447c0,0.972-0.268,1.829-0.804,2.57c-0.535,0.739-1.289,1.315-2.262,1.729
			s-2.084,0.617-3.335,0.617C454.993,153.066,453.811,152.881,452.682,152.51z"/>
		<path fill="#343844" d="M482.113,135.608c0.173,0.188,0.259,0.441,0.259,0.754v15.642c0,0.296-0.081,0.536-0.246,0.718
			c-0.164,0.182-0.396,0.271-0.691,0.271c-0.295,0-0.52-0.091-0.668-0.271c-0.146-0.182-0.224-0.42-0.224-0.718v-12.626
			l-5.361,10.278c-0.23,0.479-0.567,0.718-1.014,0.718c-0.429,0-0.766-0.239-1.014-0.718l-5.387-10.155v12.503
			c0,0.296-0.078,0.536-0.234,0.718s-0.383,0.271-0.68,0.271s-0.527-0.091-0.691-0.271c-0.165-0.182-0.247-0.42-0.247-0.718v-15.642
			c0-0.313,0.091-0.563,0.273-0.754c0.181-0.188,0.427-0.284,0.738-0.284c0.412,0,0.741,0.239,0.989,0.718l6.276,12.032
			l6.202-12.032c0.133-0.265,0.275-0.449,0.433-0.558c0.156-0.105,0.343-0.16,0.557-0.16
			C481.696,135.323,481.94,135.418,482.113,135.608z"/>
		<path fill="#343844" d="M496.184,151.99c-1.202-0.718-2.129-1.744-2.778-3.09c-0.651-1.341-0.977-2.928-0.977-4.757
			c0-1.811,0.324-3.39,0.977-4.729c0.649-1.344,1.576-2.373,2.778-3.09c1.203-0.716,2.628-1.073,4.276-1.073
			c1.103,0,2.146,0.177,3.125,0.529c0.981,0.354,1.834,0.861,2.559,1.521c0.264,0.247,0.396,0.536,0.396,0.865
			c0,0.23-0.067,0.433-0.198,0.604c-0.13,0.173-0.288,0.259-0.469,0.259c-0.196,0-0.438-0.09-0.717-0.271
			c-0.839-0.659-1.604-1.12-2.286-1.384c-0.685-0.264-1.47-0.396-2.359-0.396c-1.911,0-3.382,0.621-4.411,1.865
			c-1.028,1.245-1.544,3.011-1.544,5.301c0,2.308,0.516,4.082,1.544,5.324c1.03,1.243,2.5,1.866,4.411,1.866
			c0.873,0,1.655-0.132,2.348-0.396c0.691-0.264,1.46-0.725,2.299-1.385c0.279-0.181,0.519-0.271,0.717-0.271
			c0.182,0,0.338,0.082,0.469,0.246c0.133,0.166,0.198,0.371,0.198,0.618c0,0.33-0.133,0.617-0.396,0.864
			c-0.725,0.659-1.576,1.166-2.559,1.521c-0.979,0.354-2.021,0.531-3.125,0.531C498.813,153.066,497.387,152.707,496.184,151.99z"/>
		<path fill="#343844" d="M512.605,151.979c-1.195-0.725-2.113-1.754-2.757-3.088c-0.642-1.335-0.963-2.909-0.963-4.721
			c0-1.829,0.317-3.414,0.95-4.757c0.634-1.344,1.548-2.373,2.744-3.09c1.195-0.716,2.605-1.073,4.238-1.073
			c1.632,0,3.043,0.356,4.236,1.073c1.195,0.718,2.109,1.746,2.743,3.09c0.635,1.343,0.952,2.92,0.952,4.729
			c0,1.813-0.321,3.392-0.964,4.732c-0.644,1.342-1.563,2.377-2.755,3.102c-1.195,0.726-2.599,1.088-4.213,1.088
			C515.206,153.066,513.799,152.703,512.605,151.979z M521.13,149.47c1.028-1.243,1.544-3.02,1.544-5.324
			c0-2.307-0.51-4.077-1.532-5.313c-1.021-1.236-2.463-1.854-4.322-1.854c-1.847,0-3.283,0.621-4.313,1.865
			c-1.029,1.245-1.544,3.011-1.544,5.301s0.515,4.063,1.544,5.313c1.03,1.253,2.467,1.879,4.313,1.879
			C518.664,151.336,520.1,150.713,521.13,149.47z"/>
		<path fill="#343844" d="M544.604,135.608c0.175,0.188,0.261,0.441,0.261,0.754v15.642c0,0.296-0.081,0.536-0.247,0.718
			c-0.164,0.182-0.396,0.271-0.69,0.271c-0.297,0-0.52-0.091-0.669-0.271c-0.146-0.182-0.223-0.42-0.223-0.718v-12.626
			l-5.362,10.278c-0.229,0.479-0.567,0.718-1.014,0.718c-0.428,0-0.767-0.239-1.013-0.718l-5.388-10.155v12.503
			c0,0.296-0.078,0.536-0.233,0.718c-0.157,0.182-0.385,0.271-0.681,0.271c-0.297,0-0.526-0.091-0.69-0.271
			c-0.166-0.182-0.248-0.42-0.248-0.718v-15.642c0-0.313,0.091-0.563,0.272-0.754c0.182-0.188,0.428-0.284,0.74-0.284
			c0.411,0,0.741,0.239,0.988,0.718l6.276,12.032l6.202-12.032c0.132-0.265,0.275-0.449,0.433-0.558
			c0.155-0.105,0.343-0.16,0.557-0.16C544.188,135.323,544.431,135.418,544.604,135.608z"/>
		<path fill="#343844" d="M549.459,152.707c-0.182-0.188-0.271-0.441-0.271-0.754v-15.52c0-0.296,0.095-0.536,0.283-0.717
			c0.188-0.183,0.441-0.271,0.754-0.271h5.856c1.829,0,3.25,0.444,4.262,1.333c1.014,0.891,1.521,2.149,1.521,3.781
			c0,1.63-0.511,2.899-1.532,3.806c-1.021,0.907-2.438,1.359-4.25,1.359h-4.868v6.228c0,0.313-0.09,0.563-0.271,0.754
			c-0.184,0.188-0.43,0.284-0.741,0.284C549.888,152.991,549.641,152.896,549.459,152.707z M555.884,144.045
			c2.652,0,3.979-1.16,3.979-3.483c0-2.289-1.326-3.436-3.979-3.436h-4.671v6.919H555.884L555.884,144.045z"/>
		<path fill="#343844" d="M578.368,152.126c0,0.246-0.093,0.454-0.284,0.617c-0.188,0.164-0.416,0.247-0.679,0.247
			c-0.411,0-0.7-0.197-0.865-0.595l-1.754-4.002h-9.317l-1.777,4.002c-0.166,0.396-0.454,0.595-0.866,0.595
			c-0.264,0-0.493-0.086-0.691-0.261c-0.197-0.173-0.296-0.382-0.296-0.63c0-0.132,0.032-0.263,0.099-0.395l7.068-15.718
			c0.099-0.229,0.246-0.402,0.444-0.519s0.412-0.174,0.643-0.174c0.247,0,0.47,0.062,0.669,0.187
			c0.196,0.124,0.346,0.293,0.444,0.508l7.066,15.717C578.337,151.838,578.368,151.979,578.368,152.126z M566.212,146.714h7.833
			l-3.928-8.871L566.212,146.714z"/>
		<path fill="#343844" d="M594.949,135.608c0.165,0.188,0.247,0.441,0.247,0.754v15.593c0,0.313-0.086,0.563-0.259,0.754
			c-0.174,0.189-0.418,0.285-0.729,0.285c-0.313,0-0.585-0.141-0.815-0.422l-10.255-13.714v13.098c0,0.313-0.086,0.563-0.26,0.755
			c-0.174,0.188-0.407,0.284-0.705,0.284s-0.526-0.096-0.69-0.284c-0.165-0.188-0.247-0.441-0.247-0.755v-15.592
			c0-0.313,0.087-0.563,0.26-0.755c0.174-0.188,0.416-0.283,0.729-0.283c0.33,0,0.609,0.14,0.839,0.419l10.232,13.714v-13.097
			c0-0.313,0.086-0.563,0.259-0.754c0.173-0.189,0.406-0.284,0.704-0.284S594.785,135.418,594.949,135.608z"/>
		<path fill="#343844" d="M611.11,135.349c0.229,0,0.437,0.09,0.617,0.271c0.182,0.183,0.271,0.402,0.271,0.667
			c0,0.247-0.074,0.453-0.224,0.617l-6.005,7.586v7.463c0,0.329-0.096,0.585-0.284,0.767s-0.434,0.271-0.729,0.271
			s-0.54-0.091-0.729-0.271c-0.189-0.181-0.284-0.438-0.284-0.767v-7.487l-6.005-7.563c-0.166-0.183-0.248-0.388-0.248-0.617
			c0-0.264,0.095-0.485,0.285-0.668c0.188-0.183,0.406-0.271,0.654-0.271c0.281,0,0.519,0.124,0.718,0.371l5.636,7.188l5.607-7.188
			C610.591,135.471,610.83,135.349,611.11,135.349z"/>
	</g>
	
		<ellipse transform="matrix(-0.9914 0.1312 -0.1312 -0.9914 210.2538 34.4654)" fill="#23C5D9" cx="103.992" cy="24.156" rx="4.78" ry="9.842"/>
	<path fill="#23C5D9" d="M130.429,14.031c-9.168-4.206-19.165-0.52-26.159,9.561c-0.776,1.115-0.499,2.647,0.615,3.424
		c1.109,0.783,2.648,0.507,3.424-0.616c5.642-8.117,13.137-11.073,20.068-7.893c8.675,3.97,15.15,16.972,10.733,34.129
		c-7.957,30.974-43.944,68.641-57.549,77.907c-1.516,1.023-3.199,1.531-5.053,1.638l0.008-0.298
		c-14.41-5.496-33.607-25.688-51.132-54.069C10.618,53.9,11.345,38.712,14.551,30.18c0.001-0.005,0.005-0.009,0.006-0.015
		c3.214-8.534,9.391-12.083,12.791-13.438c10.799-4.301,25.994,3.09,32.985,7.098c2.316,1.327,3.734,2.286,3.792,2.323
		c1.209,0.835,2.964,0.645,3.898-0.433c0.937-1.071,0.711-2.616-0.514-3.451c-0.076-0.052-0.318-0.213-0.644-0.426l0.641-3.008
		c-1.341-0.945-2.924-2.002-4.663-3.088l0.043-0.201C54.259,9.458,36.528-0.99,21.398,3.333c-8.09,2.3-14.735,7.731-18.922,15.313
		c0,0-10.994,21.141,15.221,57.722c2.774,4.821,6.052,9.86,10.069,14.955c0.014,0.02,0.024,0.03,0.04,0.049
		c14.389,21.007,29.221,36.139,41.986,42.904v0.013c0,0,0.492,0.3,1.36,0.661c1.164,0.484,3.009,1.068,5.243,1.2
		c2.667,0.159,5.888-0.348,9.211-2.479c16.481-11.905,50.368-49.059,58.27-79.804C148.964,34.084,140.962,18.851,130.429,14.031z"/>
	<path fill="#23C5D9" d="M68.806,122.097c0,0,1.426,13.725,15.437,6.475l-1.798,3.135l-9.68,0.176l-6.438-4.533L68.806,122.097z"/>
	<path fill="#23C5D9" d="M70.474,126.922c0,0-1.862-4.383,0-8.685c1.862-4.3-1.073-3.115-1.073-3.115l-2.483,8.977L70.474,126.922z"
		/>
</g>
</svg>
